<svg xmlns="http://www.w3.org/2000/svg" version="1.1" xmlns:xlink="http://www.w3.org/1999/xlink" xmlns:svgjs="http://svgjs.dev/svgjs" width="1000" height="1000"><g clip-path="url(#SvgjsClipPath1305)"><rect width="1000" height="1000" fill="#78b1ff"></rect><g transform="matrix(2.898550724637681,0,0,2.898550724637681,0,5.797101449275374)"><svg xmlns="http://www.w3.org/2000/svg" version="1.1" xmlns:xlink="http://www.w3.org/1999/xlink" xmlns:svgjs="http://svgjs.dev/svgjs" width="345.000000pt" height="341.000000pt"><svg version="1.0" xmlns="http://www.w3.org/2000/svg" width="345.000000pt" height="341.000000pt" viewBox="0 0 345.000000 341.000000" preserveAspectRatio="xMidYMid meet">

<g transform="translate(0.000000,341.000000) scale(0.100000,-0.100000)" stroke="none">
<path d="M3146 3324 c-168 -51 -285 -91 -293 -102 -8 -9 -12 -11 -8 -4 3 6 1
12 -4 12 -14 0 -13 -11 3 -33 11 -13 16 -15 24 -5 6 7 10 17 10 21 0 5 3 11 6
14 3 3 4 -4 1 -16 -3 -18 0 -21 26 -19 32 2 35 7 17 28 -11 12 -10 12 5 1 9
-7 17 -10 17 -6 0 4 7 2 15 -5 12 -10 15 -10 15 0 0 9 4 9 17 -1 15 -12 16
-12 10 5 -6 16 -5 17 8 6 24 -20 27 -6 5 20 -11 13 -20 26 -20 29 1 3 13 -9
29 -26 30 -36 44 -42 34 -15 -5 14 -3 15 8 5 19 -18 29 -16 22 5 -6 16 -5 16
14 0 36 -33 46 -16 13 22 -11 13 -18 26 -15 29 4 3 17 -9 31 -27 26 -33 51
-43 40 -17 -6 17 9 21 19 5 10 -16 38 -12 31 5 -7 19 8 19 24 1 12 -15 44 -10
34 5 -3 5 -2 14 2 20 5 8 13 4 24 -11 13 -18 21 -20 35 -13 12 7 14 13 6 17
-6 4 -11 11 -11 17 0 14 26 11 40 -6 7 -8 23 -15 36 -15 25 0 32 14 13 26 -8
5 -6 10 5 16 20 11 23 98 4 97 -7 0 -139 -38 -292 -85z m280 39 c19 -25 17
-33 -6 -33 -23 0 -46 36 -27 43 19 8 19 8 33 -10z m-84 -51 c-7 -2 -20 5 -27
15 -12 15 -11 19 3 24 11 4 20 -1 27 -15 8 -16 8 -22 -3 -24z m-65 -14 c-6 -3
-16 1 -23 10 -9 12 -9 19 -1 24 6 3 16 -1 23 -10 9 -12 9 -19 1 -24z m-63 6
c9 -22 -3 -32 -14 -14 -12 19 -12 30 -1 30 5 0 12 -7 15 -16z m-49 -32 c-8 -9
-25 20 -18 31 3 5 10 2 15 -7 6 -10 7 -20 3 -24z m-110 -20 c-8 -8 -25 10 -19
20 4 6 9 5 15 -3 4 -7 6 -15 4 -17z m30 18 c3 -5 2 -10 -4 -10 -5 0 -13 5 -16
10 -3 6 -2 10 4 10 5 0 13 -4 16 -10z"></path>
<path d="M1136 3247 c2 -7 13 -18 23 -24 17 -11 18 -10 7 13 -11 24 -40 35
-30 11z"></path>
<path d="M755 3156 c-187 -51 -429 -117 -537 -147 -165 -45 -198 -57 -198 -72
0 -13 5 -17 18 -13 9 2 73 21 140 41 68 20 126 34 129 32 2 -3 -10 -8 -27 -12
-30 -7 -32 -9 -28 -46 l3 -38 -117 -42 c-72 -25 -118 -47 -118 -55 0 -10 20
-6 78 15 67 25 334 127 385 146 13 6 17 2 17 -19 0 -18 5 -26 17 -26 22 0 14
-6 -28 -24 l-35 -15 4 30 c5 31 -2 35 -42 19 -20 -7 -26 -16 -26 -40 0 -28 2
-30 21 -20 11 7 23 10 25 7 2 -2 -24 -16 -58 -30 -34 -15 -64 -25 -66 -22 -3
3 0 5 6 5 7 0 12 15 12 34 l0 34 -40 -15 c-36 -14 -40 -20 -40 -50 0 -31 2
-33 21 -23 11 7 23 10 25 7 2 -2 -58 -31 -133 -65 -81 -35 -139 -67 -141 -76
-2 -11 27 -1 105 35 59 28 176 81 258 119 83 38 199 91 259 119 60 28 111 49
114 46 3 -3 0 -5 -6 -5 -7 0 -12 -9 -12 -20 0 -22 7 -25 29 -11 8 5 12 18 9
29 -4 14 1 23 18 31 22 10 23 9 12 -9 -7 -10 -9 -22 -6 -26 12 -11 28 7 28 31
0 15 7 26 20 30 11 4 18 9 16 13 -2 4 6 7 17 8 12 0 29 4 38 8 12 5 18 1 22
-13 3 -12 2 -21 -2 -21 -4 0 -6 -12 -4 -27 4 -23 -1 -31 -27 -47 l-32 -18 2
28 c4 58 1 74 -15 68 -8 -4 -15 -15 -15 -26 0 -12 -8 -27 -17 -35 -17 -14 -17
-14 0 -9 12 4 17 0 17 -15 0 -13 5 -18 13 -14 6 4 3 -1 -8 -10 -19 -15 -20
-15 -23 2 -6 30 -19 35 -48 19 -16 -8 -25 -15 -21 -16 5 0 16 4 26 10 16 8 17
6 13 -17 -4 -20 -2 -24 9 -19 24 12 -33 -28 -75 -53 -23 -13 -35 -18 -28 -10
6 7 12 21 12 31 0 16 -3 17 -21 7 -15 -8 -20 -18 -16 -35 3 -17 -1 -28 -14
-35 -16 -8 -19 -6 -19 15 0 24 -2 25 -25 14 -16 -7 -25 -19 -25 -35 0 -21 3
-22 20 -13 33 18 22 3 -13 -18 -95 -56 -94 -55 -70 -37 21 16 33 65 16 65 -21
-1 -43 -30 -43 -57 0 -28 -13 -38 -245 -179 l-245 -149 0 -217 c0 -120 2 -218
5 -218 3 0 195 170 428 378 232 208 525 469 651 580 206 183 225 203 192 198
-20 -3 -53 -8 -73 -12 -21 -3 -45 -7 -53 -10 -10 -2 -16 3 -17 17 -2 18 0 19
15 7 15 -11 15 -11 5 2 -6 8 -13 24 -15 34 -3 22 -41 66 -54 65 -5 0 -162 -42
-349 -93z m356 4 c5 0 9 -17 9 -37 0 -25 -3 -33 -9 -24 -5 7 -7 23 -5 35 4 20
4 20 -5 1 -7 -15 -9 -3 -9 45 1 46 3 53 5 23 2 -24 8 -43 14 -43z m6 58 c-3
-8 -6 -5 -6 6 -1 11 2 17 5 13 3 -3 4 -12 1 -19z m-37 -5 c0 -15 -2 -16 -10
-3 -8 13 -10 12 -10 -2 0 -10 -4 -18 -10 -18 -14 0 -12 27 3 33 22 9 27 7 27
-10z m-52 -40 c0 -38 -2 -43 -9 -25 -10 27 -29 29 -22 2 11 -40 52 -35 47 6
-1 13 1 24 6 24 4 0 8 -18 8 -40 1 -36 -10 -52 -21 -32 -2 4 -2 2 -1 -5 2 -6
-1 -13 -5 -15 -5 -2 -5 -12 0 -23 7 -19 8 -19 8 3 1 21 15 30 24 15 2 -5 2 -2
1 5 -2 6 0 12 4 12 4 0 7 19 6 43 -1 39 -1 39 3 5 2 -21 8 -38 14 -38 5 0 9
-8 9 -17 0 -15 -2 -16 -10 -3 -8 13 -10 13 -10 -1 0 -9 -12 -25 -27 -34 -75
-49 -68 -49 -68 2 0 31 -5 48 -14 51 -8 3 -11 0 -7 -7 12 -18 9 -92 -3 -104
-9 -9 -11 -5 -9 13 2 14 8 28 13 32 6 5 5 8 -2 8 -7 0 -10 6 -7 14 5 13 -21
30 -34 22 -4 -2 -7 7 -7 20 0 17 7 27 22 30 15 4 20 12 18 30 -1 14 1 27 6 30
5 2 8 -10 7 -29 -1 -35 7 -57 22 -57 5 0 5 12 1 28 -8 32 -3 72 9 72 5 0 7 -7
4 -15 -4 -8 -1 -15 5 -15 6 0 11 9 11 20 0 11 2 20 4 20 2 0 4 -21 4 -47z
m116 -17 c1 -26 -1 -49 -6 -52 -4 -3 -8 8 -8 25 0 16 -4 33 -10 36 -5 3 -9 14
-9 23 1 15 2 15 6 0 2 -10 8 -18 13 -18 4 0 6 10 3 23 -3 12 -3 19 1 16 4 -4
8 -28 10 -53z m-204 13 c0 -13 -11 -25 -35 -35 -44 -18 -51 -18 -34 3 12 14
12 17 -1 21 -9 3 -2 10 20 18 48 17 50 17 50 -7z m-90 -34 c0 -14 6 -25 13
-26 10 0 10 -2 0 -6 -7 -2 -13 -15 -13 -28 0 -21 -26 -42 -38 -30 -3 3 0 5 6
5 7 0 12 11 12 25 0 14 6 25 13 25 8 0 9 3 1 8 -18 12 -24 52 -8 52 8 0 14
-10 14 -25z m-47 -5 c-3 -13 0 -20 8 -21 8 0 5 -4 -6 -9 -30 -13 -34 -12 -28
10 4 15 0 20 -13 21 -14 1 -13 3 6 9 37 12 39 12 33 -10z m-63 -20 c0 -11 6
-20 13 -21 6 0 -3 -7 -22 -15 -18 -8 -36 -13 -39 -10 -3 4 0 6 6 6 7 0 12 9
12 20 0 11 -6 20 -14 20 -16 0 -31 -34 -22 -49 3 -5 -2 -11 -12 -14 -9 -2 -26
-8 -37 -12 -18 -6 -18 -5 -2 5 20 13 23 49 5 51 -12 1 87 37 105 38 4 1 7 -8
7 -19z m160 -9 c0 -11 -4 -23 -10 -26 -6 -4 -10 5 -10 19 0 14 5 26 10 26 6 0
10 -9 10 -19z m-297 -23 c-4 -7 -6 -23 -4 -35 1 -13 -2 -23 -7 -23 -6 0 -16
-2 -24 -5 -19 -8 -18 58 2 67 25 11 42 9 33 -4z m210 5 c-7 -2 -13 -15 -13
-28 0 -34 -25 -39 -26 -4 -1 18 5 30 15 32 23 6 38 6 24 0z m-311 -54 c-4 -29
-3 -31 19 -25 17 4 15 2 -6 -8 -41 -18 -84 -30 -66 -18 18 13 5 52 -17 53 -17
1 42 27 64 28 6 1 9 -11 6 -30z m238 12 c0 -11 6 -21 12 -23 7 -3 -1 -9 -18
-15 -28 -10 -30 -9 -29 16 0 25 11 41 28 41 4 0 7 -9 7 -19z m-57 -7 c-8 -4
-9 -13 -3 -29 8 -20 5 -25 -19 -33 -26 -9 -28 -8 -23 14 3 16 0 24 -9 25 -16
1 40 28 56 28 6 0 5 -3 -2 -5z m-282 -13 c-8 -5 -12 -20 -9 -39 4 -28 1 -30
-55 -51 -33 -12 -62 -19 -64 -17 -2 2 10 9 27 15 28 9 31 14 28 43 -3 29 1 35
27 45 37 14 67 17 46 4z m201 -43 c-7 -49 -42 -68 -42 -23 0 14 -6 25 -12 26
-12 1 38 27 53 29 3 0 3 -15 1 -32z"></path>
<path d="M940 3110 c0 -11 4 -20 8 -20 4 0 8 9 9 20 1 11 -2 20 -8 20 -5 0 -9
-9 -9 -20z"></path>
<path d="M998 3087 c-3 -13 -1 -32 3 -43 9 -23 11 -20 14 29 3 40 -10 51 -17
14z"></path>
<path d="M900 3154 c0 -8 5 -12 10 -9 6 3 10 10 10 16 0 5 -4 9 -10 9 -5 0
-10 -7 -10 -16z"></path>
<path d="M3424 3225 c8 -31 -18 -35 -34 -5 -6 11 -20 20 -30 20 -23 0 -26 -10
-8 -28 9 -9 8 -12 -4 -12 -8 0 -21 7 -28 15 -19 23 -43 19 -35 -5 7 -23 -13
-28 -21 -5 -4 8 -15 15 -25 15 -12 0 -16 -5 -13 -15 4 -8 2 -15 -4 -15 -5 0
-12 7 -16 15 -8 23 -29 18 -23 -5 6 -23 -11 -27 -19 -5 -4 8 -12 15 -20 15 -8
0 -11 -6 -7 -17 6 -16 3 -15 -17 2 -20 17 -23 18 -17 3 7 -19 -8 -25 -18 -8
-3 6 -11 10 -16 10 -6 0 -7 -6 -3 -12 5 -9 2 -9 -9 1 -15 12 -17 11 -18 -5 0
-11 -3 -14 -6 -6 -2 6 -9 12 -14 12 -6 0 -7 -6 -3 -12 5 -9 2 -9 -9 1 -13 10
-17 10 -17 1 0 -10 -3 -10 -14 -1 -9 7 -17 8 -20 2 -3 -5 -14 -8 -24 -6 -9 1
-23 -3 -31 -9 -11 -8 -13 -8 -7 2 7 12 -6 17 -17 6 -9 -10 4 -34 16 -27 5 3 7
1 3 -5 -3 -6 -30 -18 -59 -27 -28 -9 -58 -19 -66 -21 -18 -6 25 -54 48 -54 14
0 14 -1 1 -10 -10 -6 -11 -10 -2 -10 6 0 12 -5 12 -11 0 -41 115 -130 139
-106 10 9 11 8 5 -8 -7 -17 -6 -18 8 -7 13 10 18 10 24 1 4 -8 3 -9 -4 -5 -7
4 -12 3 -12 -3 0 -14 369 -203 382 -195 6 4 9 3 5 -2 -3 -5 12 -19 33 -30 l38
-21 0 78 c0 69 -2 79 -19 84 -11 4 -17 10 -14 15 3 4 -9 22 -25 40 -17 18 -23
29 -14 26 9 -3 21 -6 28 -6 7 0 19 -12 26 -27 8 -19 14 -23 18 -14 2 7 -2 17
-9 22 -10 6 -11 9 -1 9 19 0 14 20 -5 21 -12 0 -13 2 -5 6 10 4 9 11 -4 31 -9
15 -24 33 -33 41 -14 11 -11 12 22 7 l37 -7 0 92 c0 81 -3 96 -22 116 l-21 23
21 0 c18 0 22 6 22 30 0 21 -5 30 -16 30 -12 0 -15 -6 -10 -25z m-46 -74 c-14
-5 -31 15 -23 29 5 8 11 6 20 -7 9 -11 10 -19 3 -22z m-118 9 c8 -16 8 -20 -3
-20 -8 0 -17 9 -20 20 -3 11 -1 20 4 20 4 0 13 -9 19 -20z m54 5 c3 -8 2 -15
-3 -15 -5 0 -14 7 -21 15 -10 12 -10 15 3 15 8 0 17 -7 21 -15z m-220 -10 c3
-8 1 -15 -3 -15 -5 0 -11 7 -15 15 -3 8 -1 15 3 15 5 0 11 -7 15 -15z m31 4
c11 -17 -1 -21 -15 -4 -8 9 -8 15 -2 15 6 0 14 -5 17 -11z m45 -4 c10 -12 10
-15 -3 -15 -8 0 -17 7 -21 15 -3 8 -2 15 3 15 5 0 14 -7 21 -15z m46 -12 c-7
-7 -26 7 -26 19 0 6 6 6 15 -2 9 -7 13 -15 11 -17z m-232 6 c3 -2 -10 -5 -29
-5 -18 0 -32 3 -30 7 5 7 52 6 59 -2z m-84 -94 c0 -2 -6 -8 -13 -14 -10 -8
-14 -7 -14 2 0 8 6 14 14 14 7 0 13 -1 13 -2z m47 -19 c-3 -7 1 -13 8 -13 7 0
11 7 8 16 -3 9 4 5 15 -9 12 -14 18 -27 15 -30 -3 -3 -8 0 -10 7 -2 6 -15 9
-30 7 -21 -4 -24 -2 -19 12 5 14 4 15 -8 5 -8 -7 -17 -8 -20 -3 -7 12 -1 17
24 19 14 1 20 -3 17 -11z m87 -5 c3 -5 14 -7 24 -5 11 4 23 -5 35 -25 10 -17
14 -31 9 -31 -5 0 -14 11 -20 25 -6 14 -16 25 -22 25 -14 0 -13 -13 2 -28 7
-7 8 -12 2 -12 -6 0 -17 11 -24 25 -7 14 -17 25 -22 25 -5 0 -4 -9 2 -20 6
-11 7 -20 3 -20 -4 0 -13 11 -20 25 -10 22 -9 25 7 25 11 0 21 -4 24 -9z
m-134 -17 c0 -8 -19 -13 -24 -6 -3 5 1 9 9 9 8 0 15 -2 15 -3z m236 -3 c-3 -5
6 -21 20 -36 17 -18 20 -26 9 -21 -9 3 -22 6 -27 6 -6 0 -8 3 -5 7 4 3 -3 17
-15 30 l-21 23 22 0 c12 0 20 -4 17 -9z m-221 -22 c-3 -13 0 -19 8 -16 7 3 11
9 10 14 -1 5 7 10 18 10 11 1 19 -3 17 -8 -2 -6 -7 -10 -12 -9 -5 1 -12 -4
-16 -10 -5 -8 -16 -9 -30 -5 -18 6 -20 9 -9 16 8 5 10 9 6 9 -5 0 -5 5 -2 10
10 16 14 12 10 -11z m275 9 c0 -6 7 -20 17 -30 9 -10 13 -21 10 -25 -7 -6 -27
15 -48 50 -7 13 -6 17 6 17 8 0 15 -5 15 -12z m82 -38 c26 -37 27 -49 3 -32
-23 15 -56 72 -43 72 7 -1 25 -19 40 -40z m-272 20 c0 -5 -2 -10 -4 -10 -3 0
-8 5 -11 10 -3 6 -1 10 4 10 6 0 11 -4 11 -10z m354 -1 c19 0 19 -1 3 -8 -17
-6 -17 -8 2 -33 25 -31 26 -38 7 -38 -8 0 -24 16 -36 36 -13 20 -32 40 -44 45
-17 8 -14 8 13 4 18 -3 43 -5 55 -6z m-290 -26 c6 -10 11 -28 11 -40 1 -17 -2
-20 -12 -11 -10 8 -13 7 -13 -3 0 -11 -2 -11 -10 1 -5 8 -10 11 -10 7 0 -5 -5
-5 -11 -1 -8 4 -8 9 1 18 8 8 13 8 18 -1 4 -7 13 -9 20 -4 10 6 8 13 -8 32
-15 17 -20 19 -16 7 7 -24 -1 -23 -14 1 -9 17 -7 19 12 16 12 -3 27 -13 32
-22z m44 -18 c6 -14 8 -25 3 -25 -4 0 -13 11 -19 25 -6 14 -8 25 -3 25 4 0 13
-11 19 -25z m47 -17 c17 -29 17 -31 1 -19 -21 17 -40 51 -29 51 5 0 17 -15 28
-32z m50 10 c5 4 5 1 1 -6 -5 -8 -1 -21 10 -33 9 -10 12 -19 6 -19 -11 0 -52
52 -52 65 0 4 6 2 13 -4 8 -6 18 -7 22 -3z m40 -16 c6 -4 20 -22 33 -39 30
-44 2 -32 -33 13 -24 31 -24 44 0 26z m-125 -34 c12 -16 15 -25 7 -30 -8 -4
-7 -11 2 -22 10 -12 16 -13 26 -3 10 10 9 17 -7 40 -11 15 -16 27 -11 27 14 0
43 -59 32 -66 -6 -4 -3 -14 8 -27 17 -21 17 -21 -1 -7 -10 8 -25 15 -34 17 -9
1 -18 7 -20 13 -2 5 -7 8 -12 5 -4 -3 -14 3 -21 13 -12 15 -12 16 2 4 24 -18
32 9 13 37 -20 28 -7 27 16 -1z m218 11 c11 0 12 -2 4 -6 -9 -3 -6 -13 10 -36
19 -26 19 -30 4 -24 -10 4 -22 7 -27 7 -6 0 -8 4 -5 9 3 5 -4 21 -16 37 -19
24 -20 27 -4 21 10 -4 25 -7 34 -8z m-291 -26 c0 -9 -4 -10 -14 -2 -7 6 -13
12 -13 14 0 1 6 2 13 2 8 0 14 -6 14 -14z m153 -4 c0 -5 5 -7 12 -3 7 4 8 3 4
-5 -4 -6 -3 -18 4 -26 9 -11 7 -12 -12 -8 -13 3 -18 1 -12 -4 6 -4 16 -19 23
-33 11 -22 9 -22 -13 5 -16 18 -22 33 -16 39 5 5 5 16 -1 28 -6 12 -6 18 1 18
5 0 10 -5 10 -11z m73 -19 c9 0 8 -3 -1 -8 -9 -6 -7 -14 8 -30 23 -24 10 -31
-13 -7 -8 8 -18 11 -22 7 -5 -4 -5 -1 -1 6 4 7 2 20 -6 29 -11 15 -11 16 5 10
10 -4 24 -7 30 -7z m69 -55 c22 -44 1 -37 -29 9 -18 29 -19 33 -5 29 9 -2 25
-20 34 -38z m80 -31 c10 -19 16 -34 14 -34 -16 0 -36 14 -36 25 0 7 -7 18 -15
25 -20 17 -19 29 3 23 9 -2 25 -20 34 -39z m-152 6 c14 -20 16 -28 7 -24 -13
5 -42 54 -32 54 2 0 13 -13 25 -30z m62 -30 c9 -17 13 -30 9 -30 -5 0 -18 15
-29 34 -12 19 -15 33 -9 30 7 -2 20 -18 29 -34z m52 -6 c9 -3 16 -11 16 -17 0
-6 10 -22 23 -35 l22 -24 -27 13 c-16 7 -28 17 -28 22 0 6 -7 19 -17 29 -17
19 -15 22 11 12z"></path>
<path d="M1296 3094 c-4 -9 -1 -22 6 -28 7 -6 11 -10 9 -9 -2 2 -10 -2 -18 -8
-10 -9 -13 -7 -13 11 0 13 -3 20 -7 16 -5 -4 -8 -68 -8 -142 0 -73 3 -130 8
-125 10 10 12 74 4 124 -4 22 -3 36 2 33 5 -3 15 2 22 12 13 15 12 16 -3 3
-16 -12 -18 -11 -18 17 0 34 29 68 31 36 1 -11 1 -23 0 -27 -1 -5 3 -6 9 -2 5
3 10 1 10 -6 0 -7 3 -9 6 -6 4 4 3 12 -2 19 -5 7 -9 25 -8 40 1 16 -3 25 -9
21 -6 -4 -8 0 -4 10 3 9 2 19 -2 22 -5 3 -12 -2 -15 -11z"></path>
<path d="M903 3040 c3 -10 0 -21 -7 -24 -8 -3 -8 -5 1 -5 6 -1 9 -10 5 -23 -4
-15 -2 -19 7 -13 7 4 11 16 8 26 -3 11 -1 19 3 19 4 0 6 9 3 20 -3 11 -10 20
-15 20 -6 0 -8 -9 -5 -20z"></path>
<path d="M1242 3025 c0 -46 -4 -53 -13 -20 l-8 30 1 -30 c0 -46 -4 -53 -13
-20 l-8 30 1 -30 c0 -46 -4 -53 -12 -20 -7 27 -8 26 -7 -12 0 -23 4 -40 8 -38
10 7 17 -52 7 -67 -5 -8 -8 -1 -8 19 0 17 -4 34 -8 37 -10 6 -3 -54 8 -69 12
-17 20 -74 10 -80 -5 -3 -11 7 -13 22 -4 20 -5 18 -4 -9 1 -20 -2 -40 -6 -44
-4 -4 -7 5 -7 20 0 17 -4 25 -11 20 -7 -4 -9 -22 -6 -45 3 -22 1 -42 -4 -45
-10 -6 -13 27 -10 116 0 39 -2 50 -9 39 -5 -9 -8 -57 -7 -108 2 -51 -1 -95 -5
-97 -4 -3 -8 -10 -8 -15 0 -6 4 -8 8 -5 4 2 6 -12 4 -32 -2 -30 -1 -34 8 -19
6 10 9 38 7 62 -2 25 -1 43 1 40 9 -9 33 35 26 47 -4 7 -3 8 5 4 6 -4 14 0 18
11 6 15 9 13 15 -12 6 -26 7 -25 3 7 -4 41 11 62 18 26 4 -18 5 -16 5 7 0 51
4 61 13 35 l9 -25 -4 27 c-1 15 0 32 4 38 4 7 4 27 0 45 -4 19 -4 37 1 42 5 5
5 22 0 40 -5 17 -6 35 -2 39 4 5 4 23 0 39 l-8 30 1 -30z m-9 -126 c-15 -18
-17 -33 -4 -25 17 11 18 -43 1 -69 l-17 -27 -5 32 c-5 33 8 52 15 23 2 -11 3
-10 1 2 -2 11 -7 36 -12 55 -6 27 -5 40 7 57 l16 21 6 -26 c3 -16 0 -34 -8
-43z"></path>
<path d="M1222 2920 c0 -14 2 -19 5 -12 2 6 2 18 0 25 -3 6 -5 1 -5 -13z"></path>
<path d="M693 2963 c-7 -2 -13 -17 -13 -33 0 -26 -9 -33 -122 -90 -68 -35
-117 -56 -110 -49 12 13 17 59 7 59 -4 0 -19 -7 -35 -15 -22 -11 -30 -23 -30
-41 0 -21 4 -25 20 -21 11 3 20 4 20 2 0 -2 -92 -51 -205 -111 -115 -60 -205
-113 -205 -121 0 -11 4 -11 23 -2 12 7 164 89 337 184 399 218 389 212 372
192 -16 -19 -8 -38 13 -30 20 7 19 39 -1 47 -8 3 -23 2 -33 -4 -15 -8 -17 -6
-13 15 4 25 -1 28 -25 18z"></path>
<path d="M1154 2955 c-4 -9 -4 -26 -2 -40 4 -17 -3 -31 -21 -49 l-27 -26 4 35
c3 23 0 35 -8 35 -9 0 -11 -13 -8 -45 4 -33 1 -48 -11 -59 -15 -13 -16 -10
-13 32 3 37 1 44 -8 35 -7 -6 -11 -28 -8 -52 l4 -41 -517 -587 c-502 -569
-549 -628 -522 -654 5 -4 151 162 325 370 331 391 404 476 392 451 -4 -8 -16
-25 -26 -36 -15 -17 -18 -34 -16 -84 l3 -64 28 42 c26 36 29 48 26 104 -4 61
-2 66 35 111 21 26 41 45 44 42 3 -3 -2 -13 -11 -23 -12 -13 -17 -36 -17 -73
l1 -54 20 24 c16 19 20 37 18 86 l-2 62 108 126 c59 70 108 127 109 127 1 0 0
-23 0 -51 -2 -61 -24 -94 -24 -35 0 34 -2 37 -16 25 -11 -9 -15 -26 -12 -58
l4 -46 -460 -630 c-538 -739 -521 -715 -529 -737 -4 -10 -3 -26 1 -37 5 -14
103 119 446 606 241 343 441 621 444 618 3 -2 -2 -13 -11 -23 -11 -12 -17 -36
-17 -68 l0 -49 20 25 c16 19 20 37 18 80 -2 43 2 63 21 93 13 21 26 36 29 33
2 -3 -1 -12 -8 -21 -7 -9 -10 -33 -8 -62 5 -53 59 39 -719 -1221 -189 -305
-224 -368 -221 -395 3 -28 65 71 482 763 263 437 475 786 470 775 -4 -11 -9
-42 -11 -70 -3 -48 -3 -49 12 -25 9 15 14 46 13 76 -1 38 4 61 20 85 12 19 22
29 22 22 0 -6 -4 -15 -10 -18 -5 -3 -10 -25 -10 -48 1 -40 1 -41 16 -22 10 13
14 35 12 65 -3 30 2 54 13 73 l17 29 -5 -49 c-3 -36 -2 -44 6 -33 6 8 11 33
10 55 -1 22 2 49 6 59 5 11 5 17 -1 14 -14 -10 -7 103 8 118 11 11 13 6 11
-34 -1 -26 -5 -56 -9 -66 -4 -11 -4 -17 2 -13 5 3 8 -12 6 -36 -2 -30 0 -38 7
-27 5 8 8 58 7 110 -1 52 1 100 5 105 4 6 4 31 0 57 -7 42 -5 51 18 79 l26 31
-1 -41 c-1 -23 -4 -44 -8 -48 -13 -14 -5 -25 9 -13 9 7 14 19 11 26 -3 8 0 13
6 11 6 -1 13 4 16 12 3 8 0 11 -7 7 -12 -8 -15 15 -12 97 2 47 -5 60 -15 32z
m-62 -196 c-3 -33 -1 -40 9 -34 7 5 3 -6 -10 -23 -12 -18 -23 -32 -24 -32 -1
0 -2 22 -2 49 1 38 16 81 29 81 1 0 0 -19 -2 -41z m-38 -183 c0 -45 -8 -66
-43 -125 -23 -39 -44 -71 -47 -71 -2 0 0 9 6 20 6 11 10 42 9 68 -2 45 25 112
39 97 3 -3 0 -11 -6 -17 -7 -7 -12 -30 -12 -52 1 -39 1 -40 16 -21 10 13 14
36 12 65 -1 27 3 54 12 68 8 12 15 22 15 22 0 0 0 -24 -1 -54z"></path>
<path d="M115 2936 c-36 -10 -40 -15 -43 -49 -4 -43 -3 -43 61 -20 43 16 47
20 47 50 0 36 -4 38 -65 19z"></path>
<path d="M1128 2944 c-5 -4 -8 -23 -8 -43 0 -25 3 -32 11 -24 6 6 9 25 7 43
-2 17 -6 28 -10 24z"></path>
<path d="M1303 2935 c0 -8 4 -12 8 -9 4 2 10 -2 12 -8 4 -8 6 -9 6 -2 1 6 -5
17 -12 23 -10 8 -14 7 -14 -4z"></path>
<path d="M616 2927 c-11 -8 -17 -22 -14 -36 3 -23 3 -23 25 -5 14 13 19 25 14
37 -5 15 -9 16 -25 4z"></path>
<path d="M533 2887 c-22 -10 -34 -57 -15 -57 20 0 44 28 40 47 -2 17 -6 19
-25 10z"></path>
<path d="M2844 2868 l-19 -23 23 19 c12 11 22 21 22 23 0 8 -8 2 -26 -19z"></path>
<path d="M2710 2700 c-102 -93 -187 -175 -189 -182 -2 -7 6 -1 18 15 13 15 27
25 32 21 9 -5 43 24 185 161 34 33 70 65 80 71 11 6 18 15 17 20 -3 14 39 54
50 47 6 -3 7 -1 3 5 -4 7 -8 12 -9 12 -2 0 -86 -76 -187 -170z"></path>
<path d="M2735 2676 c-183 -167 -210 -196 -185 -196 6 0 9 4 6 9 -7 10 28 43
41 39 5 -2 52 36 104 84 52 47 106 96 122 108 15 12 24 26 21 32 -4 6 -2 8 3
5 6 -4 18 2 28 13 10 11 14 20 10 20 -5 0 2 11 15 25 12 13 27 22 33 18 6 -3
7 -1 3 5 -4 7 -8 12 -9 12 -1 0 -87 -79 -192 -174z"></path>
<path d="M130 2822 c-41 -16 -45 -21 -48 -55 -2 -20 -1 -37 2 -37 2 0 25 9 50
20 42 18 46 22 46 55 0 19 -1 35 -2 34 -2 0 -23 -8 -48 -17z"></path>
<path d="M1013 2829 c-7 -7 -13 -31 -13 -53 0 -37 1 -39 16 -25 10 11 14 29
12 53 -2 30 -5 35 -15 25z"></path>
<path d="M2670 2710 c-74 -71 -129 -129 -121 -130 13 0 263 227 269 245 11 30
-28 0 -148 -115z"></path>
<path d="M2774 2659 c-104 -94 -195 -177 -202 -184 -11 -10 -11 -14 -1 -20 7
-5 10 -4 6 2 -4 6 4 18 18 27 14 9 25 13 25 10 0 -4 9 1 20 11 11 10 17 22 13
28 -4 6 -1 7 6 2 8 -4 28 8 54 33 90 87 151 142 160 142 5 0 7 6 4 14 -3 8 1
13 11 12 9 0 22 10 29 24 7 14 22 33 34 43 12 10 20 20 17 22 -2 3 -90 -72
-194 -166z"></path>
<path d="M2791 2619 c-111 -99 -201 -185 -201 -191 0 -6 9 1 21 16 11 14 25
23 30 20 14 -8 50 26 42 40 -3 6 -3 8 2 4 12 -11 47 12 42 27 -3 7 0 12 7 11
19 -2 88 63 80 76 -5 7 -3 8 5 4 18 -12 56 25 39 37 -10 6 -8 7 4 4 18 -6 52
25 41 38 -5 4 -2 5 5 1 16 -10 53 21 46 39 -3 7 10 22 28 33 18 12 28 22 21
22 -6 0 -102 -81 -212 -181z"></path>
<path d="M282 2770 c-27 -17 -32 -25 -26 -43 9 -30 7 -30 48 -11 29 14 36 23
36 46 0 33 -13 35 -58 8z"></path>
<path d="M963 2779 c-7 -7 -13 -33 -13 -58 0 -41 1 -44 16 -30 10 11 14 30 12
58 -2 34 -5 40 -15 30z"></path>
<path d="M2865 2628 c-247 -219 -258 -229 -248 -237 4 -3 7 -4 5 -2 -5 10 41
49 53 45 7 -3 19 3 27 13 7 10 22 23 33 29 11 7 19 19 19 27 -1 9 4 13 10 11
14 -5 132 102 128 117 -1 6 2 7 8 4 14 -9 52 24 43 38 -3 5 -2 7 4 4 6 -4 21
5 33 18 13 14 20 25 15 25 -5 0 2 11 15 25 12 13 27 22 33 18 6 -3 7 -1 3 5
-4 7 -8 12 -9 12 -1 0 -78 -68 -172 -152z"></path>
<path d="M428 2742 c-20 -12 -28 -25 -28 -45 0 -27 0 -27 30 -12 23 12 30 22
30 45 0 17 -1 30 -2 29 -2 0 -15 -8 -30 -17z"></path>
<path d="M2856 2559 c-119 -105 -216 -195 -216 -199 0 -5 4 -12 10 -15 5 -3 7
0 5 8 -7 17 30 51 45 42 14 -9 52 24 43 38 -3 5 -1 7 5 3 6 -3 20 6 31 20 12
15 21 23 21 19 0 -5 9 0 20 10 12 10 19 24 16 31 -3 7 0 11 7 9 18 -7 50 22
41 36 -5 8 -3 10 5 5 15 -10 53 23 44 37 -3 5 -2 7 4 4 14 -9 55 22 47 35 -4
6 -3 8 3 5 6 -4 21 5 33 18 13 14 18 25 11 25 -18 0 -3 19 33 41 17 10 26 19
19 19 -7 0 -109 -86 -227 -191z"></path>
<path d="M897 2712 c-13 -15 -17 -32 -15 -68 l3 -49 18 27 c12 18 17 40 15 68
-3 42 -3 42 -21 22z"></path>
<path d="M123 2697 c-38 -18 -43 -25 -43 -54 0 -39 11 -41 65 -10 32 18 40 28
40 51 0 37 -10 40 -62 13z"></path>
<path d="M2898 2534 c-117 -103 -219 -193 -226 -199 -11 -10 -11 -14 -1 -20 7
-5 10 -4 5 3 -6 10 28 36 49 37 22 2 55 27 49 37 -4 6 -3 8 4 4 6 -3 19 5 30
19 11 14 24 25 29 25 16 0 44 36 36 45 -5 4 -3 5 3 2 6 -3 21 1 33 9 18 13 20
19 9 32 -10 14 -10 15 1 5 11 -9 24 -3 62 29 27 22 46 45 43 50 -3 4 -2 7 3 6
18 -5 54 24 49 39 -7 18 33 55 52 48 7 -3 10 0 7 5 -3 6 -10 10 -15 10 -5 0
-105 -84 -222 -186z"></path>
<path d="M1182 2675 c0 -16 2 -22 5 -12 2 9 2 23 0 30 -3 6 -5 -1 -5 -18z"></path>
<path d="M298 2669 c-31 -16 -38 -25 -38 -49 0 -35 5 -36 48 -10 25 15 32 27
32 50 0 16 -1 30 -2 30 -2 -1 -20 -10 -40 -21z"></path>
<path d="M3030 2580 c-69 -61 -124 -114 -123 -120 2 -5 -2 -9 -7 -7 -14 3
-210 -165 -204 -175 3 -4 17 6 31 23 19 22 28 27 34 18 6 -10 12 -9 29 6 11
10 19 24 16 31 -3 8 1 11 10 7 19 -7 46 16 40 34 -3 8 -1 11 4 8 13 -8 162
114 154 126 -3 5 -2 8 3 7 17 -5 54 24 49 38 -3 9 -2 12 5 9 14 -9 51 25 45
42 -6 16 43 55 61 48 8 -2 11 0 8 5 -12 20 -32 7 -155 -100z"></path>
<path d="M813 2638 c-24 -25 -31 -89 -14 -116 16 -26 42 34 39 89 l-3 51 -22
-24z"></path>
<path d="M1157 2653 c-4 -3 -7 -20 -6 -37 l1 -31 9 34 c10 33 8 47 -4 34z"></path>
<path d="M3072 2543 c-108 -94 -130 -118 -121 -129 10 -13 16 -11 35 7 13 12
21 26 18 30 -3 5 1 6 9 4 16 -7 51 30 42 44 -4 7 0 8 10 5 19 -7 57 24 48 39
-3 5 -1 7 4 4 16 -10 67 33 54 46 -13 13 44 61 60 51 8 -4 9 -3 5 4 -4 7 -13
12 -19 11 -7 0 -72 -52 -145 -116z"></path>
<path d="M962 2627 c-8 -9 -12 -33 -10 -59 3 -41 4 -42 16 -20 7 13 12 39 10
59 -3 32 -5 34 -16 20z"></path>
<path d="M3147 2529 c-95 -82 -116 -104 -106 -115 9 -12 16 -10 41 7 24 18 27
23 16 37 -10 14 -10 15 1 5 11 -9 20 -7 42 9 24 18 26 24 17 37 -10 13 -10 14
1 4 19 -16 76 24 61 43 -13 14 46 68 62 58 7 -4 8 -2 4 4 -4 7 -10 12 -14 12
-4 -1 -60 -46 -125 -101z"></path>
<path d="M138 2581 c-44 -24 -48 -29 -48 -64 l0 -39 38 23 c56 33 64 43 60 76
l-3 30 -47 -26z"></path>
<path d="M3115 2418 c-185 -153 -205 -173 -191 -186 14 -14 18 -14 36 3 11 10
19 24 16 31 -3 8 1 11 10 7 19 -7 56 27 49 45 -4 12 -2 12 8 4 18 -15 63 30
51 50 -6 10 -5 11 7 1 13 -11 20 -8 38 11 15 16 20 29 15 38 -6 10 -5 11 7 1
13 -11 20 -8 38 11 15 16 20 29 15 38 -6 10 -5 11 7 1 13 -11 20 -9 38 11 12
12 19 29 16 37 -7 18 50 63 67 53 7 -4 8 -3 4 4 -4 7 -11 12 -16 12 -6 0 -102
-77 -215 -172z"></path>
<path d="M717 2542 c-26 -27 -28 -35 -25 -93 l3 -64 28 37 c24 31 28 44 25 93
l-3 56 -28 -29z"></path>
<path d="M897 2552 c-13 -15 -17 -32 -15 -68 l3 -49 18 27 c12 18 17 40 15 68
-3 42 -3 42 -21 22z"></path>
<path d="M2185 2560 c-11 -4 -23 -6 -27 -3 -5 2 -8 -1 -8 -7 0 -6 -4 -9 -9 -5
-5 3 -12 1 -16 -5 -4 -6 -11 -8 -16 -5 -5 4 -9 2 -9 -2 0 -5 -10 -9 -21 -10
-27 -2 -35 -11 -23 -23 6 -6 19 -4 37 5 15 7 27 12 27 10 0 -2 16 3 36 11 20
8 38 14 40 12 1 -2 -46 -24 -106 -50 -78 -32 -110 -42 -110 -32 0 8 3 13 8 12
14 -3 62 14 62 22 0 18 -18 18 -46 1 -22 -14 -40 -43 -74 -122 -25 -57 -44
-111 -43 -119 2 -8 5 -40 7 -70 2 -30 7 -80 11 -110 4 -30 9 -68 10 -85 2 -16
4 -30 4 -30 1 0 4 -22 6 -50 3 -27 7 -66 10 -85 4 -30 12 -116 14 -158 1 -7 6
-10 12 -6 8 4 7 0 -1 -15 -6 -12 -8 -31 -5 -42 4 -11 8 -36 10 -57 2 -20 7
-59 10 -87 3 -27 6 -57 6 -65 0 -40 11 -80 21 -74 6 4 6 -1 -1 -14 -7 -13 -9
-38 -5 -62 6 -37 8 -39 21 -23 9 12 9 7 -2 -12 -13 -24 -15 -38 -7 -65 5 -19
14 -34 21 -32 7 1 6 -7 -4 -22 -13 -20 -14 -30 -3 -69 7 -28 16 -43 22 -39 6
3 3 -6 -7 -21 -13 -21 -15 -32 -7 -46 5 -11 10 -35 10 -53 l1 -33 25 30 26 30
-27 -48 c-23 -41 -26 -52 -16 -73 6 -14 11 -39 11 -57 l1 -32 26 30 26 30 -18
-30 c-10 -16 -24 -38 -30 -48 -10 -14 -10 -26 1 -55 7 -20 13 -53 14 -72 l0
-35 32 50 c18 28 72 110 120 184 67 103 86 140 82 158 -4 16 -1 25 11 29 13 5
15 15 11 48 l-5 41 11 -38 c17 -55 43 -50 35 7 -8 57 14 65 63 25 40 -33 46
-31 32 10 -6 17 -7 31 -2 31 5 0 12 -16 16 -35 3 -20 11 -34 18 -32 12 4 12
21 2 60 -5 21 0 25 45 39 l50 17 10 -25 c5 -14 9 -30 9 -35 0 -15 28 -11 127
21 51 16 99 30 106 30 7 0 117 -34 245 -75 128 -41 234 -75 237 -75 2 0 -3 19
-11 43 l-15 43 -237 79 c-130 43 -244 78 -252 77 -8 0 -130 -37 -270 -82 -221
-71 -259 -86 -284 -113 l-29 -32 23 38 c18 31 21 46 15 84 -4 25 -9 51 -11 58
-3 7 5 14 20 17 23 5 26 1 32 -29 8 -45 30 -36 27 11 -2 22 1 34 7 31 6 -3 10
-15 10 -26 0 -26 20 -32 55 -19 l28 11 -27 28 c-23 24 -25 29 -11 35 28 10 33
7 40 -24 4 -16 13 -30 20 -30 11 0 12 7 4 32 -5 18 -9 34 -9 36 0 2 11 -10 25
-26 18 -21 31 -29 46 -25 13 4 18 11 15 20 -17 43 -18 63 -3 63 9 0 18 -13 22
-30 4 -16 12 -30 18 -30 6 0 54 14 107 31 l96 32 220 -73 c120 -40 225 -75
231 -77 18 -7 -9 68 -28 79 -8 4 -112 41 -231 82 l-217 74 -253 -85 c-166 -56
-259 -93 -272 -107 -18 -21 -18 -21 -2 6 9 15 16 36 16 47 0 11 7 24 17 29 12
7 14 17 10 41 -4 20 -3 30 3 26 6 -3 10 -18 10 -31 0 -16 5 -24 13 -21 7 2 11
17 9 36 -3 42 18 49 59 20 l32 -23 -6 35 -6 34 15 -33 c18 -40 36 -34 24 8 -8
27 -6 31 16 36 14 4 28 4 31 0 3 -3 12 2 19 12 12 15 14 14 25 -16 6 -18 16
-31 23 -29 6 2 51 17 99 33 l89 29 205 -70 c114 -39 212 -71 219 -73 19 -5 -5
65 -25 73 -9 4 -108 38 -220 76 l-204 70 -240 -81 c-132 -45 -247 -89 -255
-98 -11 -13 -11 -11 1 8 8 14 13 37 11 50 -2 14 -5 33 -6 44 -2 11 5 21 19 27
19 7 23 4 28 -22 8 -37 25 -28 26 14 1 30 1 30 8 7 6 -19 13 -24 31 -22 33 3
36 9 17 30 -22 24 -21 29 2 35 14 3 21 -2 25 -19 10 -37 29 -29 22 9 l-6 32
11 -28 c8 -21 17 -27 33 -25 21 3 24 18 11 51 -5 12 -2 17 9 17 9 0 21 -11 26
-24 l9 -25 94 32 95 31 207 -72 207 -72 -7 28 c-3 15 -10 31 -14 35 -5 5 -98
40 -207 78 -176 62 -203 70 -234 61 -19 -5 -125 -41 -236 -80 -194 -68 -201
-69 -196 -46 2 13 12 26 22 29 12 4 16 13 13 33 -3 25 -3 26 6 5 15 -34 34
-29 26 7 -6 25 -4 30 13 30 11 0 25 -7 32 -15 20 -24 33 -18 26 13 -5 25 -5
26 6 5 15 -31 32 -29 24 1 -8 34 7 40 38 15 l27 -21 -6 25 c-4 14 -2 28 4 31
6 4 11 1 11 -6 1 -38 15 -39 102 -8 l85 31 201 -70 c111 -39 202 -68 202 -65
0 3 -6 17 -14 32 -12 24 -40 37 -206 96 -138 48 -200 66 -219 61 -14 -4 -112
-38 -217 -76 -106 -38 -195 -69 -198 -69 -3 0 -1 12 4 26 7 19 7 31 -1 40 -14
17 -12 19 19 28 18 6 22 4 22 -14 0 -13 5 -20 13 -17 6 2 11 15 10 28 l-3 24
12 -22 c12 -25 16 -27 37 -14 9 6 10 11 2 15 -18 12 -12 36 9 36 11 0 20 -7
20 -15 0 -8 5 -15 11 -15 7 0 9 9 6 23 -5 20 -5 20 7 5 7 -10 21 -18 31 -18
17 0 17 1 0 20 -20 22 -20 25 13 34 16 5 22 3 22 -8 0 -27 17 -27 97 2 l78 29
183 -64 c101 -34 188 -63 193 -63 5 0 3 11 -3 25 -7 16 -28 31 -62 43 -310
114 -317 116 -355 105 -20 -6 -115 -39 -211 -75 l-175 -64 0 26 c0 22 4 26 23
22 12 -2 22 1 22 7 0 6 6 10 13 8 7 -1 11 7 10 21 -3 26 4 28 28 6 22 -20 42
-9 35 20 -5 19 -4 20 8 4 18 -24 25 -22 18 5 -5 22 -5 22 16 4 25 -23 47 -14
32 13 -7 13 -6 19 5 24 9 3 15 0 15 -9 0 -25 17 -25 84 0 37 14 74 25 83 25 9
0 92 -27 185 -61 93 -34 171 -59 173 -57 2 2 2 13 -1 24 -4 16 -44 34 -189 86
l-183 66 -188 -70 c-104 -38 -197 -76 -206 -85 -16 -14 -16 -13 -5 16 6 17 15
31 20 31 5 0 4 7 -4 16 -10 13 -10 17 2 25 20 13 29 11 35 -6 10 -24 27 -17
21 8 -6 21 -5 21 8 3 8 -11 18 -17 21 -13 4 4 2 13 -5 21 -17 21 8 27 37 8 21
-14 22 -13 22 12 0 31 6 32 33 9 19 -17 19 -17 13 5 -8 25 8 31 21 7 8 -13 19
-11 84 12 l75 27 169 -62 c92 -34 170 -60 173 -58 2 3 1 13 -2 23 -4 14 -54
36 -178 81 -95 35 -177 62 -182 62 -18 0 -361 -132 -375 -143 -12 -10 -13 -9
-6 3 5 8 8 23 7 32 -2 12 2 16 12 12 20 -8 56 13 56 33 0 13 3 14 12 5 17 -17
31 -15 56 8 12 12 22 16 22 11 0 -6 7 -8 16 -4 11 4 12 9 5 16 -17 17 -13 27
9 27 11 0 20 -4 20 -10 0 -15 21 -12 87 14 l61 24 171 -63 c114 -41 170 -57
167 -48 -4 8 -6 18 -6 23 0 8 -321 130 -342 130 -8 0 -200 -70 -340 -125 -13
-5 -18 -2 -18 9 0 9 5 16 11 16 8 0 8 5 -1 15 -7 8 -9 16 -4 17 27 4 40 3 46
-7 5 -6 12 -5 20 4 10 10 10 12 1 7 -7 -4 -13 -3 -13 3 0 17 19 22 40 11 14
-8 20 -8 20 0 0 6 5 8 10 5 6 -3 10 2 10 11 0 14 3 15 12 6 18 -18 30 -14 23
8 -5 14 -2 20 9 20 9 0 16 -6 16 -14 0 -11 16 -9 73 12 l72 25 95 -35 c52 -20
125 -48 163 -62 37 -14 67 -22 67 -17 0 24 -42 47 -182 100 l-158 60 -166 -64
c-92 -36 -170 -62 -175 -59 -5 3 -9 12 -9 20 0 8 4 13 10 9 16 -10 60 7 61 24
0 9 3 11 5 4 3 -7 12 -9 20 -6 11 4 12 9 3 19 -9 11 -7 14 9 14 11 0 23 -6 25
-12 3 -7 6 -3 6 10 1 25 11 28 29 10 9 -9 12 -8 12 6 0 14 3 16 14 7 10 -8 29
-5 77 13 l64 24 154 -59 c85 -33 156 -57 158 -55 2 2 1 10 -2 19 -6 15 -297
132 -325 130 -11 -1 -210 -76 -317 -120 -8 -3 -11 5 -8 24 3 28 6 30 37 18 13
-5 20 -1 26 16 6 15 11 18 16 11 11 -18 26 -14 26 6 0 12 2 14 8 4 5 -7 16
-10 25 -6 9 3 14 11 11 16 -4 6 -10 5 -16 -3 -8 -11 -9 -11 -5 1 2 8 12 14 21
14 9 -1 16 3 16 8 0 6 6 5 15 -2 12 -10 26 -8 72 11 l57 23 85 -31 c48 -17
116 -42 154 -56 52 -21 67 -23 67 -12 0 8 -12 21 -27 29 -16 8 -22 15 -15 16
20 0 -5 40 -26 41 -11 0 -12 2 -4 6 9 4 8 12 -7 36 -10 18 -28 48 -39 67 -11
19 -24 34 -30 33 -5 -1 -8 7 -5 17 3 11 0 20 -6 20 -6 0 -11 7 -11 15 0 7 -7
18 -16 23 -9 5 -16 13 -16 18 -1 16 -21 54 -29 54 -4 0 -9 10 -13 23 -12 47
-50 76 -151 115 -66 25 -108 36 -120 32z m44 -45 c-3 -2 -46 -22 -97 -43 -51
-21 -89 -41 -85 -46 4 -4 -1 -4 -11 0 -14 5 -17 4 -12 -4 9 -14 36 -16 36 -2
0 5 12 13 28 16 15 4 33 11 40 17 6 5 12 7 12 3 0 -3 24 4 53 15 94 37 40 7
-74 -41 -77 -32 -106 -49 -94 -53 24 -10 27 -9 19 5 -5 8 -2 9 9 5 10 -3 17
-2 17 3 0 5 7 6 17 3 9 -4 14 -2 10 3 -3 6 4 11 16 11 12 1 23 7 25 13 2 5 8
8 13 5 5 -4 29 3 54 14 25 11 45 17 45 13 0 -6 -227 -102 -241 -102 -8 0 -4
38 4 46 12 13 7 26 -7 21 -10 -4 -13 -1 -9 8 3 8 9 12 14 9 5 -3 9 0 9 5 0 6
3 10 8 9 4 -1 21 4 37 11 36 14 54 20 60 21 3 0 24 9 47 20 42 18 66 25 57 15z
m-77 -150 c-73 -30 -135 -55 -137 -55 -3 0 -2 7 1 15 4 8 11 12 16 9 6 -4 14
-1 18 5 4 7 17 13 28 14 12 1 22 4 22 7 0 3 9 11 21 18 17 11 20 11 14 0 -3
-7 1 -4 9 6 9 11 16 15 16 8 0 -8 15 -5 48 8 26 10 54 19 62 19 8 0 -45 -24
-118 -54z m168 5 c11 -8 8 -9 -12 -4 -31 7 -171 -43 -162 -57 3 -5 -1 -6 -9
-3 -7 2 -35 -4 -61 -16 -57 -24 -56 -24 -56 -5 0 9 6 12 17 8 12 -5 14 -3 8 7
-6 10 -4 12 7 7 9 -3 21 0 27 6 6 6 11 7 11 2 0 -6 4 -4 8 2 4 7 19 14 32 16
13 2 26 9 28 15 2 6 9 9 16 6 7 -3 28 2 47 10 40 18 78 20 99 6z m0 -30 c12
-7 11 -9 -5 -8 -12 1 -78 -22 -149 -51 -70 -29 -130 -50 -132 -48 -13 13 9 34
32 29 14 -2 24 0 24 7 0 7 5 9 10 6 6 -3 10 -2 10 2 0 5 10 9 22 10 12 1 26 9
31 18 5 9 16 14 25 11 9 -3 35 3 57 14 47 22 55 23 75 10z m80 0 c8 -5 11 -10
5 -10 -5 0 -17 5 -25 10 -8 5 -10 10 -5 10 6 0 17 -5 25 -10z m-122 -65 c-35
-12 -102 -38 -150 -58 -79 -32 -88 -34 -88 -17 0 13 5 17 20 13 12 -3 20 -2
19 3 -4 21 2 28 11 14 8 -13 10 -13 10 1 0 13 8 17 33 15 20 0 31 3 30 11 -2
8 4 10 14 6 11 -5 14 -3 8 6 -5 10 -2 11 13 7 11 -4 41 2 68 12 27 11 55 17
62 15 7 -3 -16 -15 -50 -28z m132 -5 c8 -5 11 -10 5 -10 -5 0 -17 5 -25 10 -8
5 -10 10 -5 10 6 0 17 -5 25 -10z m-40 -21 c12 -8 11 -9 -7 -4 -13 4 -71 -14
-162 -51 -123 -49 -139 -58 -124 -69 21 -16 43 -9 44 14 0 10 2 11 6 4 2 -7 9
-13 15 -13 6 0 7 7 4 16 -5 13 -2 15 14 11 14 -4 20 0 20 11 0 12 3 13 12 4
17 -17 28 -15 21 4 -4 12 0 14 19 9 14 -4 45 2 74 13 43 18 53 18 79 6 30 -13
30 -13 3 -8 -20 4 -69 -10 -168 -50 -77 -31 -144 -56 -148 -56 -5 0 -9 6 -9
13 0 6 -4 20 -8 29 -5 12 -2 20 8 24 9 3 13 12 10 20 -6 16 17 15 29 -1 5 -6
8 -3 8 7 0 12 6 15 22 10 16 -4 19 -2 13 8 -6 10 -4 12 8 7 10 -4 17 -2 17 4
0 6 7 9 15 5 9 -3 15 1 15 11 0 11 3 13 13 5 8 -7 26 -4 57 9 52 21 79 23 100
8z m90 1 c8 -5 11 -10 5 -10 -5 0 -17 5 -25 10 -8 5 -10 10 -5 10 6 0 17 -5
25 -10z m-40 -20 c8 -5 11 -10 5 -10 -5 0 -17 5 -25 10 -8 5 -10 10 -5 10 6 0
17 -5 25 -10z m120 -10 c8 -5 11 -10 5 -10 -5 0 -17 5 -25 10 -8 5 -10 10 -5
10 6 0 17 -5 25 -10z m-40 -20 c8 -5 11 -10 5 -10 -5 0 -17 5 -25 10 -8 5 -10
10 -5 10 6 0 17 -5 25 -10z m-50 -20 c8 -5 11 -10 5 -10 -5 0 -17 5 -25 10 -8
5 -10 10 -5 10 6 0 17 -5 25 -10z m100 0 c8 -5 11 -10 5 -10 -5 0 -17 5 -25
10 -8 5 -10 10 -5 10 6 0 17 -5 25 -10z m3 -80 c48 -18 86 -35 84 -37 -2 -2
-59 18 -127 43 l-122 46 -133 -52 c-106 -42 -132 -56 -128 -69 4 -13 3 -13 -5
-2 -6 8 -18 11 -31 6 -15 -5 -21 -2 -21 9 0 9 3 15 8 15 26 -4 34 1 22 16 -10
12 -10 15 3 15 8 0 17 -5 19 -12 2 -6 10 -8 16 -4 16 10 15 29 0 20 -10 -5
-10 -4 -1 6 10 11 15 11 28 0 8 -7 15 -8 15 -3 0 6 10 10 22 9 13 0 23 4 23
11 0 18 15 28 24 15 5 -9 22 -6 66 12 59 24 60 24 105 6 25 -9 84 -32 133 -50z
m-53 60 c8 -5 11 -10 5 -10 -5 0 -17 5 -25 10 -8 5 -10 10 -5 10 6 0 17 -5 25
-10z m80 -32 c10 -6 7 -7 -10 -2 -14 3 -32 11 -40 16 -10 6 -7 7 10 2 14 -3
32 -11 40 -16z m-330 -264 c0 -8 -5 -12 -10 -9 -6 4 -8 11 -5 16 9 14 15 11
15 -7z m-83 -36 c-3 -8 -6 -5 -6 6 -1 11 2 17 5 13 3 -3 4 -12 1 -19z m-47
-578 c-6 -11 -13 -20 -16 -20 -2 0 0 9 6 20 6 11 13 20 16 20 2 0 0 -9 -6 -20z
m70 -30 c-6 -11 -13 -20 -16 -20 -2 0 0 9 6 20 6 11 13 20 16 20 2 0 0 -9 -6
-20z m-40 -70 c-6 -11 -13 -20 -16 -20 -2 0 0 9 6 20 6 11 13 20 16 20 2 0 0
-9 -6 -20z m-40 -70 c-6 -11 -13 -20 -16 -20 -2 0 0 9 6 20 6 11 13 20 16 20
2 0 0 -9 -6 -20z m100 0 c-6 -11 -13 -20 -16 -20 -2 0 0 9 6 20 6 11 13 20 16
20 2 0 0 -9 -6 -20z m-30 -50 c-6 -11 -13 -20 -16 -20 -2 0 0 9 6 20 6 11 13
20 16 20 2 0 0 -9 -6 -20z m-30 -50 c-6 -11 -13 -20 -16 -20 -2 0 0 9 6 20 6
11 13 20 16 20 2 0 0 -9 -6 -20z m76 -65 c-9 -13 -37 -58 -62 -100 -25 -41
-48 -75 -50 -75 -6 0 -8 -3 63 113 30 48 57 87 60 87 3 0 -2 -11 -11 -25z
m-116 -5 c-6 -11 -13 -20 -16 -20 -2 0 0 9 6 20 6 11 13 20 16 20 2 0 0 -9 -6
-20z"></path>
<path d="M2505 2559 c-4 -6 -5 -12 -2 -15 2 -3 7 2 10 11 7 17 1 20 -8 4z"></path>
<path d="M3118 2334 c-326 -268 -297 -240 -274 -261 17 -17 18 -17 12 3 -8 27
40 76 54 55 7 -12 13 -12 35 3 16 11 24 23 21 32 -3 9 -1 12 5 9 15 -10 61 24
55 40 -3 9 0 12 10 8 18 -7 56 26 50 43 -3 8 1 11 10 7 19 -7 56 27 49 45 -4
12 -2 12 8 4 11 -9 20 -5 40 16 15 16 24 32 20 36 -4 4 -1 5 7 2 8 -3 26 3 39
14 20 18 22 22 10 38 -13 15 -12 16 3 4 15 -12 22 -11 49 9 27 19 30 24 16 34
-13 10 -11 15 19 39 30 24 37 26 52 14 15 -12 16 -11 3 5 -7 9 -17 17 -22 17
-4 0 -126 -97 -271 -216z"></path>
<path d="M3161 2275 c-150 -122 -277 -227 -282 -232 -6 -6 -4 -15 6 -23 13
-11 14 -10 9 3 -4 11 4 25 22 41 25 21 30 22 39 9 10 -13 21 -8 72 33 50 40
59 52 50 64 -9 12 -9 13 2 3 11 -9 20 -7 42 9 24 18 27 24 16 37 -10 14 -10
14 4 3 13 -10 21 -8 43 9 17 13 25 27 21 37 -4 11 -2 12 8 4 21 -17 72 38 54
58 -10 12 -9 12 5 1 14 -10 22 -9 47 10 17 12 27 27 24 32 -3 6 -2 7 4 4 5 -3
22 5 39 18 23 20 26 26 15 34 -11 7 -7 15 20 40 19 17 30 30 24 30 -5 0 -133
-101 -284 -224z"></path>
<path d="M587 2417 c-37 -32 -37 -33 -37 -107 l0 -75 40 41 c41 40 41 41 38
106 l-3 66 -38 -31z"></path>
<path d="M2824 2331 c-76 -65 -100 -92 -93 -102 7 -11 9 -11 9 2 0 23 34 51
54 43 19 -7 59 23 50 38 -3 4 -2 7 3 6 17 -5 54 24 49 38 -3 8 -1 12 4 9 5 -3
21 2 35 11 20 13 23 19 14 30 -6 8 -14 14 -18 13 -3 0 -52 -40 -107 -88z"></path>
<path d="M2945 2358 c-38 -34 -69 -66 -67 -71 1 -4 -1 -6 -6 -3 -4 2 -32 -17
-62 -44 -47 -41 -53 -50 -41 -62 12 -11 13 -10 8 3 -8 23 39 67 54 52 15 -15
162 105 154 125 -3 7 0 10 6 7 5 -4 21 1 35 10 20 13 23 19 13 31 -6 8 -14 14
-18 14 -3 -1 -37 -28 -76 -62z"></path>
<path d="M3312 2294 c-107 -86 -130 -109 -121 -120 15 -19 29 -17 59 5 22 17
23 21 10 38 -14 16 -13 17 2 5 18 -15 44 -6 68 22 10 13 10 19 -1 34 -13 16
-13 16 6 0 19 -15 22 -15 49 7 27 21 28 25 15 42 -13 16 -12 17 2 5 26 -20 49
-4 49 34 0 19 -1 34 -3 34 -2 0 -62 -48 -135 -106z"></path>
<path d="M409 2243 l-55 -58 5 -81 6 -80 53 57 53 58 -3 81 -3 81 -56 -58z"></path>
<path d="M822 2273 c-18 -26 -22 -43 -20 -85 l3 -53 23 39 c17 29 22 51 20 85
l-3 46 -23 -32z"></path>
<path d="M3411 2263 l-33 -28 26 -15 c33 -17 49 -4 44 39 l-3 32 -34 -28z"></path>
<path d="M897 2212 c-11 -21 -17 -48 -15 -75 l3 -42 18 33 c11 21 17 48 15 75
l-3 42 -18 -33z"></path>
<path d="M2846 2194 c-45 -37 -54 -49 -45 -60 14 -18 20 -18 13 -1 -2 7 7 24
20 36 20 19 29 21 39 13 11 -9 19 -6 36 12 18 19 19 25 8 35 -12 9 -26 2 -71
-35z"></path>
<path d="M3302 2178 c-60 -48 -62 -51 -46 -69 17 -19 27 -17 68 16 17 12 17
17 5 32 -13 16 -12 17 3 5 15 -12 22 -11 48 8 16 12 30 25 30 30 0 8 -32 31
-42 30 -2 -1 -31 -24 -66 -52z"></path>
<path d="M587 2177 c-34 -42 -37 -50 -37 -111 0 -36 3 -66 8 -66 4 0 24 24 45
52 37 53 47 104 28 151 -6 17 -12 13 -44 -26z"></path>
<path d="M3056 2090 c-149 -121 -144 -116 -122 -137 18 -17 18 -17 8 3 -9 18
-7 24 19 43 24 18 33 20 44 11 11 -9 20 -8 39 7 29 20 32 32 14 54 -7 7 -4 6
6 -3 18 -16 21 -16 48 4 21 15 26 24 19 31 -6 6 -11 15 -11 21 0 5 6 1 14 -9
13 -18 15 -18 44 7 29 25 30 27 13 42 -10 9 -19 16 -22 15 -2 0 -53 -40 -113
-89z"></path>
<path d="M1399 2034 c-138 -138 -147 -153 -163 -256 -1 -10 -5 -21 -9 -24 -4
-4 -7 -18 -7 -30 0 -13 -5 -26 -10 -29 -6 -4 -10 -14 -8 -23 1 -10 -1 -23 -6
-30 -4 -7 -10 -23 -12 -35 -12 -69 -17 -88 -25 -93 -5 -3 -9 -18 -9 -34 0 -16
-4 -32 -10 -35 -5 -3 -10 -21 -10 -40 0 -19 -4 -37 -10 -40 -5 -3 -10 -18 -10
-33 -1 -15 -7 -38 -14 -51 -7 -13 -11 -33 -8 -43 2 -10 -3 -27 -13 -38 -10
-11 -15 -26 -11 -35 3 -9 -3 -34 -14 -55 -11 -21 -17 -46 -14 -54 3 -9 -3 -30
-15 -49 -12 -20 -18 -42 -15 -55 4 -13 -2 -35 -15 -55 -12 -20 -18 -42 -15
-55 4 -12 -2 -35 -14 -54 -12 -19 -20 -49 -19 -70 1 -23 -6 -45 -17 -57 -13
-14 -19 -38 -21 -76 -1 -40 -7 -59 -19 -68 -14 -10 -19 -30 -21 -76 -2 -43 -8
-68 -21 -82 -13 -14 -19 -38 -20 -75 -1 -41 -8 -64 -29 -94 -22 -31 -26 -46
-21 -73 4 -20 0 -50 -8 -75 l-15 -42 248 0 249 0 7 55 6 55 50 -25 c42 -22 49
-29 49 -55 l0 -30 60 1 c33 1 60 3 60 4 0 2 -50 31 -111 66 -104 58 -110 64
-105 88 3 14 11 59 17 98 l11 73 47 -27 47 -26 -4 -53 -4 -52 40 -21 41 -21 4
38 4 37 1 -43 c2 -36 7 -45 35 -62 17 -11 35 -20 40 -20 4 0 7 20 7 45 0 25 3
45 8 45 4 0 5 -22 4 -49 -4 -45 -1 -51 25 -67 15 -9 40 -25 55 -35 15 -11 38
-19 52 -19 21 0 25 5 29 38 l4 37 1 -37 c2 -36 4 -38 37 -38 25 0 35 4 35 16
0 8 5 12 10 9 6 -4 7 -11 4 -17 -4 -6 -1 -9 5 -7 7 3 13 9 14 14 0 6 -118 81
-263 168 -146 87 -268 161 -273 166 -8 8 7 114 22 153 5 16 10 15 47 -9 39
-25 41 -28 36 -68 -4 -38 -1 -44 26 -64 17 -11 33 -21 36 -21 4 0 19 -8 34
-19 57 -39 126 -81 133 -81 4 0 10 19 12 43 3 40 4 40 5 -10 2 -47 5 -54 32
-68 16 -8 31 -15 34 -15 3 0 7 19 9 42 3 43 4 43 5 -7 2 -44 6 -53 31 -68 16
-9 32 -17 34 -17 3 0 8 19 10 43 l4 42 1 -50 c2 -44 6 -52 32 -67 l30 -17 0
43 c0 35 -4 45 -25 56 -14 7 -25 18 -25 24 0 6 -105 77 -232 158 -128 81 -242
153 -252 161 -19 14 -19 18 -6 86 7 39 15 71 17 71 2 0 21 -11 41 -25 33 -22
36 -29 33 -65 -2 -35 1 -41 31 -60 l33 -20 6 28 c7 27 7 27 8 -5 1 -23 9 -37
30 -52 16 -12 31 -21 34 -21 3 0 8 17 10 37 3 36 4 36 5 -8 2 -39 6 -48 30
-60 15 -7 30 -15 34 -17 4 -2 9 14 11 35 4 37 4 37 5 -7 2 -39 6 -48 31 -63
l30 -17 4 37 4 38 1 -42 c2 -40 5 -44 59 -79 81 -52 83 -52 83 -11 0 29 -6 39
-30 53 -16 10 -31 23 -32 30 -2 7 -104 79 -228 160 -124 80 -229 150 -233 154
-7 6 9 116 19 129 2 2 19 -7 38 -19 31 -19 36 -27 36 -60 0 -32 6 -43 30 -60
17 -12 30 -19 30 -16 0 3 12 -6 26 -19 35 -32 52 -31 57 3 3 21 4 20 3 -7 0
-23 6 -39 23 -52 32 -26 39 -24 44 14 3 28 4 27 5 -10 2 -36 6 -45 31 -58 l30
-15 4 33 c3 29 4 28 5 -8 2 -34 7 -44 31 -58 l30 -17 4 32 4 33 1 -37 c2 -28
9 -41 32 -58 l30 -21 0 33 c0 44 -39 81 -204 193 -102 70 -130 85 -138 74 -8
-11 -9 -11 -5 3 5 15 -4 23 -151 123 -3 3 19 108 24 114 2 2 19 -8 37 -22 28
-21 33 -31 29 -55 -4 -28 3 -34 127 -121 72 -50 132 -91 135 -91 2 0 6 16 8
36 l4 35 -165 116 c-91 64 -169 119 -174 123 -4 3 -3 30 4 58 l11 52 35 -27
c28 -22 34 -32 29 -53 -4 -24 2 -32 54 -68 32 -23 61 -42 64 -42 3 0 7 12 9
28 3 22 4 21 6 -9 1 -27 8 -41 26 -53 32 -21 33 -21 38 11 3 25 4 24 6 -7 1
-24 9 -40 25 -52 24 -17 24 -17 28 18 l4 35 -163 117 c-170 122 -169 121 -154
184 l6 27 33 -20 c24 -16 32 -28 32 -49 0 -23 12 -38 59 -74 l60 -46 4 27 c4
27 4 27 6 -3 1 -21 9 -37 25 -48 24 -15 25 -15 29 12 4 26 4 26 6 -4 1 -27 26
-64 44 -64 3 0 8 10 10 23 3 17 5 16 6 -8 1 -24 12 -37 55 -67 30 -21 57 -38
60 -38 18 0 3 50 -19 64 -13 9 -45 36 -71 61 -27 27 -53 44 -61 41 -8 -3 -12
-2 -9 3 3 5 -57 55 -134 110 -137 100 -139 103 -133 134 8 46 16 50 49 25 20
-16 28 -30 27 -48 -2 -20 8 -32 47 -60 83 -58 233 -168 265 -194 28 -24 30
-24 33 -6 5 29 -71 100 -251 235 -152 114 -159 120 -153 148 3 16 6 34 6 39 0
5 14 -1 30 -14 17 -12 30 -31 30 -43 0 -12 9 -30 21 -41 17 -16 22 -16 29 -4
8 12 10 11 10 -6 0 -12 11 -29 24 -38 23 -14 25 -14 29 2 3 11 5 9 6 -8 1 -14
13 -33 26 -43 25 -18 25 -18 26 5 1 20 2 19 8 -5 4 -18 23 -41 54 -64 44 -33
47 -34 47 -13 0 12 -4 29 -9 38 -6 9 -82 71 -170 137 -155 116 -160 121 -155
150 8 39 8 39 38 20 15 -10 26 -27 26 -40 0 -20 27 -55 43 -55 3 0 8 8 10 18
3 10 5 7 6 -10 1 -16 9 -32 20 -38 11 -5 25 -16 33 -22 40 -38 45 -40 50 -13
5 22 -8 35 -108 112 -102 79 -113 90 -107 113 8 34 8 34 37 15 15 -10 26 -27
26 -40 0 -16 15 -34 48 -58 41 -31 48 -33 54 -19 5 14 7 13 7 -4 1 -14 25 -41
70 -78 39 -31 72 -56 75 -56 4 0 16 -10 28 -22 16 -16 23 -18 26 -9 5 14 -77
97 -91 93 -5 -1 -6 1 -3 6 3 5 -57 58 -134 118 -125 98 -138 112 -133 134 3
14 7 27 9 29 8 9 54 -43 54 -59 0 -9 9 -25 20 -35 19 -17 20 -17 21 1 1 16 2
15 7 -4 8 -27 245 -219 250 -202 5 15 -128 141 -141 133 -5 -3 -7 -1 -3 5 8
13 -33 44 -47 35 -6 -3 -7 -2 -4 4 4 6 -31 40 -77 76 -72 57 -83 70 -79 92 l5
25 29 -21 c16 -11 29 -29 29 -38 0 -10 7 -24 16 -32 13 -10 17 -10 26 2 8 11
9 11 5 -3 -3 -9 3 -24 14 -34 17 -16 22 -16 29 -4 8 12 10 11 10 -6 0 -11 8
-29 19 -38 17 -16 19 -16 24 4 4 16 -15 37 -98 105 -82 68 -102 89 -98 105 3
11 9 20 13 20 12 0 40 -36 40 -53 0 -9 9 -21 19 -27 11 -5 35 -24 53 -41 47
-43 65 -52 72 -34 3 10 -27 41 -94 96 -55 45 -100 85 -100 88 0 3 4 13 10 21
7 12 12 12 29 -4 12 -11 21 -27 21 -36 0 -17 25 -35 43 -32 4 1 7 -4 7 -11 0
-17 68 -70 80 -62 6 3 10 0 10 -9 0 -8 18 -29 40 -46 30 -24 40 -28 40 -16 0
9 -7 19 -15 22 -8 4 -15 11 -16 18 0 6 -52 54 -116 106 -63 52 -118 101 -120
108 -4 10 -9 10 -22 0 -9 -6 -6 -1 6 12 l23 24 25 -24 c14 -13 25 -29 25 -36
0 -6 15 -23 34 -38 19 -14 40 -31 48 -39 51 -49 170 -139 176 -133 4 4 -2 14
-13 21 -23 16 -24 17 -90 84 -27 28 -56 49 -63 46 -7 -2 -10 -1 -7 4 3 5 -26
36 -65 67 -38 32 -70 62 -70 67 0 5 -8 4 -17 -4 -10 -7 -8 -2 4 11 22 23 23
23 43 5 11 -10 20 -23 20 -29 0 -11 51 -56 197 -174 29 -24 53 -40 53 -36 0
11 -149 153 -224 214 -36 29 -66 58 -66 63 0 5 -8 6 -17 3 -17 -7 -17 -6 0 11
21 21 43 11 67 -32 8 -15 18 -27 22 -27 4 0 26 -18 50 -41 68 -66 168 -149
168 -140 -1 10 -134 141 -226 221 -49 42 -74 58 -82 52 -7 -6 -3 0 8 12 19 21
20 21 40 3 11 -10 20 -23 20 -30 0 -6 19 -27 43 -45 23 -19 75 -63 115 -98 40
-36 75 -63 77 -60 3 3 -13 22 -35 42 -22 20 -40 39 -41 43 0 5 -45 46 -100 92
-87 73 -118 111 -91 111 10 0 42 -33 42 -44 0 -8 50 -52 65 -57 6 -2 17 -12
26 -23 9 -11 18 -15 22 -9 4 6 -29 41 -73 78 -44 38 -80 73 -80 78 0 5 -8 4
-17 -4 -17 -12 -17 -12 -1 5 20 23 45 15 57 -16 5 -13 24 -34 42 -47 19 -14
38 -30 42 -38 4 -7 13 -13 18 -13 6 0 19 -10 30 -22 10 -13 18 -18 19 -13 0
16 -11 27 -106 112 l-91 81 -134 -134z m148 -926 c-3 -8 -6 -5 -6 6 -1 11 2
17 5 13 3 -3 4 -12 1 -19z m-10 -120 c-3 -8 -6 -5 -6 6 -1 11 2 17 5 13 3 -3
4 -12 1 -19z m-10 -120 c-3 -8 -6 -5 -6 6 -1 11 2 17 5 13 3 -3 4 -12 1 -19z
m-40 -495 c-3 -10 -5 -2 -5 17 0 19 2 27 5 18 2 -10 2 -26 0 -35z m80 -40 c-3
-10 -5 -4 -5 12 0 17 2 24 5 18 2 -7 2 -21 0 -30z"></path>
<path d="M3307 2064 c-120 -92 -136 -107 -127 -124 16 -29 23 -30 55 -4 23 18
27 26 17 36 -20 20 -13 32 8 13 19 -17 20 -16 49 8 26 21 28 27 16 37 -8 7
-15 17 -15 23 0 5 8 3 18 -6 25 -23 34 -21 63 9 24 25 24 26 5 40 -11 8 -16
14 -11 14 5 0 16 -7 25 -15 15 -14 19 -14 29 -1 7 8 11 28 9 45 l-3 31 -138
-106z"></path>
<path d="M716 2119 c-23 -34 -26 -49 -24 -97 l3 -57 33 51 c24 39 32 62 32 97
0 26 -4 47 -9 47 -4 0 -20 -18 -35 -41z"></path>
<path d="M823 2089 c-17 -26 -23 -52 -23 -90 l0 -54 26 42 c19 33 24 54 22 90
l-3 48 -22 -36z"></path>
<path d="M3092 2013 c-127 -101 -132 -107 -116 -124 20 -22 33 -17 15 5 -9 11
-5 19 20 40 28 24 33 25 48 12 15 -14 20 -13 46 8 26 21 28 25 15 42 -12 16
-12 17 0 7 19 -17 31 -16 59 8 23 19 23 20 5 42 l-19 22 22 -19 c21 -18 23
-18 53 4 30 21 30 23 14 41 -9 10 -20 19 -23 19 -3 -1 -66 -49 -139 -107z"></path>
<path d="M159 2003 l-79 -76 0 -97 c0 -53 3 -99 6 -103 3 -3 41 34 85 81 l79
87 0 93 c0 50 -3 92 -6 92 -4 0 -42 -35 -85 -77z"></path>
<path d="M418 1974 l-56 -69 6 -80 7 -79 53 71 53 72 -3 77 -3 77 -57 -69z"></path>
<path d="M3263 1907 c-95 -73 -177 -137 -183 -143 -7 -7 -2 -17 16 -35 l27
-24 -18 28 c-10 15 -16 29 -14 31 72 55 74 56 87 36 15 -25 20 -25 57 5 l29
24 -19 23 -20 23 23 -20 c16 -13 27 -16 37 -10 154 109 165 119 165 158 0 20
-3 37 -7 36 -5 0 -85 -60 -180 -132z m148 56 c13 -17 13 -17 -6 -3 -11 8 -22
16 -24 17 -2 2 0 3 6 3 6 0 17 -8 24 -17z m-81 -58 c14 -19 14 -19 -2 -6 -10
7 -18 18 -18 24 0 6 1 8 3 6 1 -2 9 -13 17 -24z"></path>
<path d="M597 1949 c-36 -53 -38 -59 -35 -125 l3 -69 38 62 c35 57 38 67 35
125 l-3 62 -38 -55z"></path>
<path d="M727 1927 c-23 -40 -28 -57 -25 -105 l3 -57 28 53 c22 42 27 64 25
105 l-3 52 -28 -48z"></path>
<path d="M1700 1958 c0 -13 98 -103 105 -97 2 2 -21 28 -51 57 -30 30 -54 48
-54 40z"></path>
<path d="M1740 1963 c0 -5 14 -19 30 -31 17 -13 30 -19 29 -15 0 11 -59 56
-59 46z"></path>
<path d="M3088 1897 c-37 -29 -67 -57 -68 -63 0 -6 10 -19 22 -30 l22 -19 -17
27 c-16 26 -16 26 20 54 34 26 37 26 49 10 12 -17 14 -17 43 4 17 12 31 24 31
28 -1 9 -26 42 -31 42 -2 -1 -34 -24 -71 -53z"></path>
<path d="M3372 1852 l-73 -55 22 -23 c23 -24 30 -23 74 9 19 14 19 16 2 34
-26 30 -20 40 8 13 32 -30 47 -17 43 37 l-3 40 -73 -55z"></path>
<path d="M3208 1731 l-78 -58 32 -29 32 -29 -22 29 -22 29 38 28 c37 27 37 27
57 9 21 -19 21 -19 53 3 17 12 32 27 32 33 0 10 -32 45 -41 43 -2 0 -39 -26
-81 -58z"></path>
<path d="M171 1675 l-83 -99 6 -60 c3 -32 6 -77 6 -99 l0 -40 80 107 81 106
-3 93 -3 92 -84 -100z"></path>
<path d="M421 1695 l-52 -75 7 -76 7 -76 53 84 c48 74 54 89 54 138 0 88 -10
89 -69 5z"></path>
<path d="M598 1708 c-38 -65 -47 -116 -29 -163 7 -17 14 -9 42 50 30 61 34 77
29 123 l-5 54 -37 -64z"></path>
<path d="M3335 1678 c-148 -107 -141 -98 -103 -133 l31 -30 -22 32 -22 32 43
31 c43 31 43 31 57 11 17 -27 29 -26 66 3 29 23 29 25 12 43 -9 11 -17 24 -17
29 1 5 11 -4 24 -19 19 -24 24 -26 35 -13 7 8 11 32 9 54 l-3 40 -110 -80z"></path>
<path d="M1690 1622 c0 -11 28 -41 65 -70 36 -29 65 -47 65 -41 0 12 -113 129
-124 129 -3 0 -6 -8 -6 -18z"></path>
<path d="M1780 1608 c0 -7 9 -19 20 -26 17 -10 20 -10 20 3 0 8 -9 19 -20 25
-15 8 -20 8 -20 -2z"></path>
<path d="M3363 1538 c-46 -33 -83 -62 -83 -67 0 -4 14 -20 31 -37 26 -24 30
-25 20 -7 -6 12 -16 25 -21 28 -18 11 -11 22 31 49 l41 28 24 -23 c32 -30 46
-15 42 43 l-3 44 -82 -58z"></path>
<path d="M1690 1552 c0 -11 28 -41 65 -70 55 -44 65 -49 65 -32 0 11 -4 20 -9
20 -5 0 -31 22 -58 50 -52 54 -63 60 -63 32z"></path>
<path d="M433 1430 c-45 -76 -53 -96 -52 -137 1 -26 4 -59 8 -73 6 -22 12 -15
55 65 46 85 49 94 47 160 -1 38 -3 70 -4 71 -1 1 -26 -38 -54 -86z"></path>
<path d="M659 1402 c-101 -105 -145 -156 -129 -147 8 4 3 -5 -12 -22 -31 -33
-37 -53 -10 -32 9 7 5 0 -10 -17 -16 -17 -28 -35 -28 -41 0 -6 -7 -16 -15 -23
-18 -15 -20 -34 -2 -24 6 4 0 -6 -15 -23 -34 -35 -37 -54 -5 -27 12 10 5 0
-15 -22 -39 -41 -51 -66 -20 -43 9 7 2 -3 -15 -22 -35 -38 -44 -60 -15 -38 9
7 -1 -6 -23 -29 -39 -42 -40 -57 -1 -25 12 10 2 -3 -21 -28 -46 -48 -54 -65
-25 -55 11 4 7 -3 -9 -18 -15 -12 -32 -34 -39 -47 l-13 -24 29 25 c16 13 11 4
-12 -20 -54 -59 -70 -98 -22 -55 18 16 12 7 -13 -20 -55 -60 -77 -105 -32 -65
15 14 7 2 -20 -26 -51 -54 -66 -94 -19 -53 15 13 6 1 -19 -26 -25 -28 -49 -58
-53 -68 -5 -16 -2 -16 27 3 24 17 19 10 -18 -26 -27 -27 -50 -53 -52 -59 -2
-13 -10 -43 -19 -75 l-7 -25 24 20 c52 45 62 47 21 4 -55 -58 -59 -98 -5 -47
13 12 23 17 23 12 0 -6 -13 -23 -30 -39 -16 -16 -30 -38 -30 -49 0 -16 3 -17
12 -8 22 22 32 12 10 -11 -23 -24 -30 -57 -12 -57 6 0 10 -7 10 -16 0 -11 5
-14 16 -10 9 3 19 6 22 6 4 0 0 5 -8 10 -12 8 -12 13 6 37 12 16 24 38 28 51
8 24 26 28 56 12 17 -9 18 -14 8 -36 -11 -22 -9 -28 7 -40 11 -8 24 -13 29
-11 5 2 18 -5 28 -15 15 -15 34 -18 100 -18 81 1 82 1 54 16 -24 13 -30 14
-38 2 -8 -10 -9 -10 -5 3 4 12 -22 29 -105 70 -60 30 -112 57 -115 62 -2 4 5
19 16 33 12 15 21 33 21 40 0 21 16 25 45 12 15 -7 24 -17 20 -25 -3 -7 -8
-20 -11 -28 -5 -11 23 -29 107 -71 63 -31 132 -67 154 -80 22 -13 46 -21 53
-19 6 2 12 0 12 -5 0 -6 11 -10 25 -10 16 0 25 6 25 15 0 20 20 19 49 -2 14
-9 21 -11 17 -4 -12 19 -146 82 -158 75 -6 -4 -8 -3 -5 3 8 12 -141 86 -155
77 -6 -4 -8 -3 -5 3 4 5 -31 30 -77 54 l-84 43 27 47 c25 47 26 47 54 33 23
-12 26 -18 17 -34 -5 -10 -10 -21 -10 -24 0 -7 82 -51 95 -51 6 0 18 -8 28
-18 10 -10 22 -15 27 -12 6 4 10 2 10 -2 0 -5 15 -16 32 -24 18 -8 61 -30 96
-49 64 -34 72 -34 85 5 2 5 16 2 30 -8 15 -10 27 -14 27 -9 0 13 -90 53 -102
46 -6 -4 -8 -2 -4 4 6 10 -30 28 -46 24 -5 -1 -8 2 -8 8 0 5 -31 26 -70 45
-38 19 -70 33 -70 29 0 -3 -7 2 -16 11 -9 9 -47 32 -85 51 -38 19 -69 36 -69
38 0 3 6 11 13 18 7 7 18 25 24 40 11 25 15 27 38 16 22 -10 25 -16 20 -40 -6
-25 -3 -29 42 -50 26 -13 50 -26 53 -29 3 -3 37 -21 75 -40 39 -19 72 -36 75
-40 3 -3 24 -15 47 -27 41 -21 42 -21 48 -2 8 24 14 25 43 4 12 -8 22 -11 22
-7 0 5 -95 60 -211 123 -117 63 -219 120 -227 126 -13 9 -12 15 9 45 13 19 25
35 26 37 1 2 11 -1 22 -8 15 -8 21 -19 19 -37 -3 -23 6 -30 72 -65 41 -22 81
-45 88 -50 7 -6 15 -8 19 -5 3 4 11 1 17 -7 6 -8 37 -28 69 -46 58 -31 59 -31
64 -10 3 13 11 19 19 16 34 -13 8 6 -61 44 -42 22 -81 38 -87 34 -6 -4 -8 -3
-5 3 3 5 -48 40 -114 77 -65 37 -119 71 -119 77 0 8 13 32 36 67 1 2 12 -2 24
-8 16 -9 20 -18 16 -35 -5 -18 -1 -27 14 -35 11 -6 20 -8 20 -5 0 4 7 -1 16
-9 8 -9 21 -16 29 -16 7 0 15 -4 17 -9 2 -5 50 -35 107 -67 96 -53 105 -56
117 -40 7 10 17 15 23 11 6 -3 11 -4 11 -2 0 3 -86 54 -191 113 -182 104 -214
128 -192 143 5 3 12 14 16 24 13 34 52 14 52 -27 0 -11 14 -27 35 -39 19 -11
53 -31 75 -44 22 -12 56 -31 75 -40 19 -10 37 -20 40 -24 3 -3 22 -15 42 -27
l36 -23 7 21 c6 20 8 20 32 5 14 -10 23 -13 19 -7 -11 19 -117 73 -128 66 -6
-4 -8 -3 -5 3 4 6 -52 44 -128 89 -74 43 -135 83 -135 88 0 6 9 22 19 35 15
20 21 22 40 12 16 -9 19 -16 12 -30 -9 -15 4 -26 92 -77 56 -32 108 -58 115
-58 6 1 12 -3 12 -10 0 -6 16 -20 36 -31 30 -16 37 -17 45 -4 5 7 9 17 9 21 0
13 -70 49 -81 42 -7 -4 -9 -3 -6 3 8 13 -111 86 -125 77 -6 -4 -8 -2 -5 3 4 6
0 13 -8 17 -8 3 -40 21 -70 40 l-54 35 17 31 c10 18 23 28 31 25 11 -4 11 -3
2 9 -19 23 14 69 40 56 10 -6 18 -19 16 -31 -1 -14 10 -26 38 -42 22 -12 42
-25 45 -28 3 -4 21 -15 40 -25 19 -11 49 -29 67 -41 17 -13 35 -23 41 -23 5 0
15 -7 22 -15 7 -8 16 -15 21 -15 5 0 9 7 9 15 0 19 9 19 32 -2 10 -9 18 -12
18 -7 0 15 -109 76 -122 68 -6 -4 -8 -3 -4 4 8 13 -60 56 -75 46 -7 -4 -9 -3
-6 3 4 6 -31 34 -78 62 l-84 52 17 29 c13 23 20 27 35 19 10 -6 17 -19 15 -30
-2 -14 8 -26 37 -42 22 -12 46 -28 53 -35 8 -7 18 -10 23 -7 5 4 9 1 9 -5 0
-6 8 -14 18 -17 9 -4 23 -13 30 -20 8 -7 17 -11 22 -8 4 3 11 -2 14 -11 4 -9
13 -14 22 -10 8 3 12 2 9 -4 -3 -5 3 -14 14 -19 15 -8 20 -7 25 5 3 8 10 12
16 9 5 -3 10 -4 10 -1 0 8 -72 49 -86 49 -7 0 -11 3 -9 7 6 10 -71 51 -81 42
-5 -4 -6 -3 -2 2 10 12 -59 59 -74 50 -6 -4 -8 -3 -5 2 3 6 -14 22 -39 38
l-44 28 20 28 c11 15 18 29 15 31 -2 2 5 15 15 29 16 21 20 22 35 10 9 -7 14
-19 11 -27 -3 -7 7 -20 22 -30 15 -9 71 -46 125 -81 76 -50 101 -61 112 -52 9
7 15 8 20 0 3 -5 12 -10 18 -10 7 0 -28 27 -77 60 -49 32 -93 57 -97 55 -4 -3
-10 2 -13 11 -4 9 -13 14 -22 10 -8 -3 -13 -2 -10 3 3 5 -21 26 -54 47 -57 37
-73 54 -50 54 6 0 10 7 10 15 0 8 3 15 8 15 13 -1 42 -27 35 -33 -8 -9 17 -38
27 -32 4 3 11 -2 14 -11 4 -9 13 -14 21 -10 8 3 14 1 12 -4 -4 -16 165 -122
177 -110 6 6 16 4 28 -7 10 -9 18 -12 18 -7 0 5 -72 56 -161 114 -88 57 -163
108 -165 112 -7 11 21 49 30 41 4 -4 4 0 0 10 -9 25 14 51 32 36 8 -6 14 -18
14 -25 0 -19 238 -176 243 -161 3 9 8 9 18 0 7 -7 17 -13 23 -13 5 0 -36 31
-93 70 -57 38 -108 67 -114 63 -5 -3 -7 -1 -4 4 4 6 -18 27 -48 47 -49 32 -54
39 -45 56 9 16 15 18 30 10 11 -6 17 -16 14 -24 -5 -13 70 -69 93 -69 7 0 11
-2 9 -5 -5 -4 118 -92 129 -92 3 0 5 6 5 14 0 7 -61 55 -135 106 -118 81 -133
95 -124 111 8 16 14 17 30 8 13 -6 18 -17 15 -26 -4 -9 1 -17 14 -20 11 -3 20
-8 20 -12 0 -10 56 -41 64 -36 3 3 4 2 1 -1 -5 -7 87 -71 94 -66 2 2 8 -3 13
-12 5 -8 15 -13 23 -9 9 3 22 0 30 -7 8 -7 15 -10 15 -7 0 13 -191 137 -202
131 -6 -4 -8 -3 -5 3 4 6 -16 26 -43 44 -48 33 -60 52 -41 63 16 10 41 -5 41
-25 0 -10 5 -19 10 -19 6 0 23 -11 37 -24 14 -13 37 -30 52 -38 14 -7 28 -15
31 -18 12 -12 79 -60 84 -60 3 0 6 6 6 14 0 8 -37 40 -82 72 -46 32 -104 73
-129 91 l-45 32 -65 -67z m-579 -1097 c-19 -19 -38 -35 -44 -35 -5 0 5 16 24
35 19 19 38 35 44 35 5 0 -5 -16 -24 -35z"></path>
<path d="M186 1354 l-76 -108 0 -87 c0 -48 4 -90 9 -93 5 -3 42 47 82 112 l74
117 -3 80 c-2 44 -5 81 -7 83 -2 2 -37 -45 -79 -104z"></path>
<path d="M3403 1392 c-24 -15 -43 -29 -43 -33 0 -3 17 -21 37 -40 l37 -34 -27
37 -28 37 36 23 c19 13 35 26 35 31 0 10 0 10 -47 -21z"></path>
<path d="M1680 1317 c0 -13 9 -32 20 -42 11 -10 20 -15 20 -10 0 4 9 -4 21
-19 11 -14 25 -26 30 -26 5 0 19 -10 31 -22 21 -21 23 -21 26 -5 2 12 -20 40
-65 83 -37 35 -71 64 -75 64 -5 0 -8 -11 -8 -23z"></path>
<path d="M2440 1297 c0 -19 16 -31 24 -18 3 5 -1 14 -9 21 -12 10 -15 10 -15
-3z"></path>
<path d="M990 1276 c0 -2 8 -10 18 -17 15 -13 16 -12 3 4 -13 16 -21 21 -21
13z"></path>
<path d="M665 1228 c1 -21 41 -57 62 -58 6 0 13 -3 15 -7 2 -5 38 -32 81 -61
69 -48 97 -57 97 -33 0 10 -163 118 -166 111 -2 -3 -9 4 -17 14 -9 12 -19 16
-27 11 -8 -5 -11 -4 -7 2 4 6 -4 18 -16 26 -22 14 -23 14 -22 -5z"></path>
<path d="M960 1176 c0 -2 8 -10 18 -17 15 -13 16 -12 3 4 -13 16 -21 21 -21
13z"></path>
<path d="M198 1033 l-76 -128 6 -93 7 -93 78 143 78 143 -8 78 -8 78 -77 -128z"></path>
<path d="M1790 1133 c0 -19 28 -53 44 -53 16 0 0 44 -21 58 -21 13 -23 13 -23
-5z"></path>
<path d="M578 1068 c7 -9 11 -22 10 -28 -3 -11 166 -128 212 -148 8 -3 21 -12
28 -19 15 -15 32 -9 32 12 0 13 -50 47 -66 45 -3 -1 -11 6 -18 16 -8 11 -18
14 -26 9 -8 -5 -11 -4 -7 3 4 6 -22 28 -60 53 -38 23 -79 49 -93 58 -23 14
-24 14 -12 -1z"></path>
<path d="M930 1066 c0 -2 8 -10 18 -17 15 -13 16 -12 3 4 -13 16 -21 21 -21
13z"></path>
<path d="M2520 1039 c0 -37 12 -57 31 -52 25 7 24 15 -6 43 -17 16 -25 19 -25
9z"></path>
<path d="M2601 929 c-157 -49 -285 -90 -286 -92 -1 -1 -29 -42 -62 -92 -133
-199 -184 -286 -176 -298 4 -7 12 -41 18 -75 l11 -64 78 119 c43 65 100 148
126 184 l48 66 -13 62 c-13 61 -10 72 13 49 10 -10 11 -5 6 20 -10 49 4 38 17
-13 15 -59 35 -53 32 9 -2 29 1 45 7 41 6 -3 10 -16 10 -28 0 -42 13 -50 59
-37 45 12 45 25 2 64 -16 15 -18 21 -9 28 25 15 37 7 49 -32 7 -23 18 -40 27
-40 10 0 12 7 8 23 -4 12 -9 35 -13 51 -6 29 -6 29 31 -12 40 -43 72 -48 62
-8 -3 11 -8 31 -12 42 -4 14 0 23 10 27 11 5 19 -4 27 -33 8 -25 18 -40 28
-40 9 0 61 14 115 30 55 17 106 30 115 30 9 0 128 -36 265 -80 138 -44 252
-77 254 -75 3 3 0 10 -5 17 -6 7 -16 29 -22 48 l-11 36 -254 82 c-140 45 -258
82 -263 81 -4 0 -136 -40 -292 -90z"></path>
<path d="M1730 847 c0 -29 7 -38 60 -75 l60 -43 0 31 c0 24 -7 35 -30 48 -16
9 -30 22 -30 28 0 11 -42 44 -55 44 -3 0 -5 -15 -5 -33z"></path>
<path d="M494 844 c-2 -25 1 -27 122 -101 80 -49 158 -93 165 -93 5 0 9 7 9
16 0 8 5 12 10 9 6 -3 10 -4 10 -2 0 8 -244 150 -257 150 -6 0 -10 3 -8 7 2 3
-8 13 -23 22 -26 16 -27 15 -28 -8z"></path>
<path d="M2665 748 c-165 -49 -307 -97 -317 -106 -9 -9 -70 -97 -136 -194
l-120 -177 14 -38 c7 -21 13 -54 14 -73 0 -19 4 -40 8 -46 4 -7 59 61 140 172
125 173 133 186 126 219 -4 23 -2 35 5 35 18 0 12 32 -10 56 -23 24 -20 54 5
54 15 0 19 -10 31 -66 5 -25 10 -31 24 -27 16 4 17 10 10 41 -20 86 2 95 68
30 23 -23 45 -39 48 -36 3 3 1 27 -6 52 -14 57 -6 72 11 19 6 -21 13 -44 15
-50 3 -7 11 -10 19 -7 11 4 13 12 7 27 -4 12 -11 36 -15 52 -10 42 8 20 24
-27 12 -39 30 -47 60 -28 12 7 7 16 -28 46 -24 20 -41 38 -39 40 2 2 24 10 50
18 l46 14 16 -49 c9 -27 19 -49 23 -49 4 0 63 16 133 36 l126 36 199 -62 c110
-33 207 -63 217 -66 15 -5 17 2 17 48 l0 53 -238 73 c-130 40 -239 72 -242 71
-3 0 -140 -41 -305 -91z"></path>
<path d="M1730 713 c0 -32 5 -42 29 -56 l29 -17 4 35 c4 37 -12 62 -32 50 -6
-4 -9 -1 -8 6 2 6 -3 14 -9 16 -9 3 -13 -7 -13 -34z"></path>
<path d="M1800 662 c0 -29 26 -62 48 -62 18 0 14 45 -5 62 -36 30 -43 30 -43
0z"></path>
<path d="M2721 534 c-179 -51 -328 -97 -332 -101 -3 -5 -66 -91 -139 -192
-118 -165 -132 -188 -124 -210 9 -24 15 -26 79 -29 l70 -3 36 48 c20 26 60 78
88 115 50 64 52 68 42 104 -8 30 -7 39 5 48 12 10 13 19 5 56 -13 56 -14 73
-2 66 5 -3 12 -23 15 -43 12 -65 15 -71 36 -66 21 5 21 8 0 90 -5 18 -5 35 0
38 12 7 17 -3 24 -50 11 -62 15 -66 65 -53 l42 11 -45 46 c-25 26 -46 49 -46
53 0 3 12 8 28 11 15 3 34 8 43 12 13 5 20 -6 33 -54 12 -45 21 -59 31 -54 18
6 18 8 0 68 -8 27 -13 51 -11 53 3 2 23 -17 46 -42 24 -25 51 -46 61 -46 23 0
23 3 4 55 -8 22 -14 45 -15 51 0 17 30 26 34 11 2 -6 11 -33 20 -59 l17 -46
142 38 143 37 164 -48 c91 -27 166 -49 168 -49 1 0 2 27 2 59 0 58 -1 60 -32
70 -164 51 -339 101 -355 100 -10 -1 -164 -43 -342 -95z"></path>
<path d="M2855 306 c-165 -46 -325 -90 -356 -99 -51 -15 -61 -23 -120 -99 -36
-46 -69 -89 -73 -96 -6 -9 16 -12 93 -12 98 0 101 1 98 22 -2 19 5 24 37 32
38 10 38 10 32 51 -3 22 -8 55 -12 73 -4 20 -3 32 4 32 6 0 13 -13 17 -29 9
-41 77 -93 110 -85 29 7 30 11 10 84 -18 65 -17 60 -6 60 4 0 16 -29 26 -65
15 -58 30 -76 47 -59 4 3 -2 35 -13 72 -10 36 -18 66 -16 67 6 4 128 35 135
35 5 0 17 -27 27 -61 10 -34 24 -63 29 -65 6 -2 77 13 158 35 l148 39 97 -29
c54 -16 104 -29 111 -29 10 0 12 17 10 68 l-3 67 -125 37 c-69 20 -134 37
-145 36 -11 0 -155 -37 -320 -82z m-340 -162 c3 -26 9 -54 12 -63 4 -11 -3 -8
-21 8 -30 28 -49 82 -32 93 24 16 34 6 41 -38z"></path>
<path d="M2750 247 c0 -6 32 -112 36 -118 2 -4 22 -2 45 3 l40 11 -43 44 c-38
39 -78 70 -78 60z"></path>
<path d="M3106 59 c-104 -26 -194 -50 -200 -53 -6 -2 114 -4 267 -5 l277 -1 0
34 c0 24 -5 36 -17 40 -17 5 -91 23 -123 31 -8 2 -100 -19 -204 -46z"></path>
</g>
</svg></svg></g></g><defs><clipPath id="SvgjsClipPath1305"><rect width="1000" height="1000" x="0" y="0" rx="0" ry="0"></rect></clipPath></defs></svg>